<svg id="Laag_1" data-name="Laag 1" xmlns="http://www.w3.org/2000/svg" viewBox="0 0 326.53 310.55"><defs><style>.cls-1{fill:#f60}.cls-2{fill:#1d80a8}.cls-3{fill:#84cfeb}.cls-4{fill:#eb5f3b}.cls-5{fill:#fff}.cls-6{fill:#37aae1}</style></defs><title>bg-result-wbso</title><path class="cls-1" d="M1215.6 367.57a11.27 11.27 0 0 0 .06-1.33l-.17-92.13h-14.73v-2h14.73V253.2h-14.72v-2h14.72v-18.91h-14.73v-2h14.72v-21.84c4.9-1 8.43-3.76 8.43-7 0-4.09-5.51-7.4-12.29-7.39l-38.33.07c-6.77 0-12.26 3.33-12.26 7.43 0 3.29 3.55 6.06 8.46 7l.29 157.93a11.91 11.91 0 0 0 .18 2v.62c0 13.1 10.3 23.71 22.93 23.68s22.88-10.66 22.87-23.75c-.13-.64-.14-1.04-.16-1.47z" transform="translate(-1090.57 -82.03)"/><path class="cls-2" d="M1169.19 175.35a6.94 6.94 0 1 1 6.92-7 6.95 6.95 0 0 1-6.92 7zm0-10.81a3.87 3.87 0 1 0 3.88 3.86 3.86 3.86 0 0 0-3.91-3.86zM1196.58 147.13a6.23 6.23 0 1 1 6.22-6.23 6.22 6.22 0 0 1-6.22 6.23zm0-9.38a3.16 3.16 0 1 0 3.17 3.15 3.16 3.16 0 0 0-3.19-3.14z" transform="translate(-1090.57 -82.03)"/><path class="cls-3" d="M1157.21 108.79a6.72 6.72 0 1 1 6.71-6.73 6.72 6.72 0 0 1-6.71 6.73zm0-10.13a3.41 3.41 0 1 0 3.42 3.4 3.41 3.41 0 0 0-3.44-3.4zM1199.85 182.77a10.36 10.36 0 1 1 10.35-10.38 10.37 10.37 0 0 1-10.35 10.38zm0-16.64a6.27 6.27 0 1 0 6.29 6.26 6.28 6.28 0 0 0-6.32-6.26z" transform="translate(-1090.57 -82.03)"/><path class="cls-2" d="M1231.86 126.86a12.26 12.26 0 1 1 12.26-12.28 12.26 12.26 0 0 1-12.26 12.28zm0-20.62a8.37 8.37 0 0 0 0 16.73 8.37 8.37 0 0 0 0-16.73zM1191.75 105.72a11.85 11.85 0 1 1 11.82-11.87 11.86 11.86 0 0 1-11.82 11.87zm0-20.62a8.78 8.78 0 1 0 8.8 8.76 8.77 8.77 0 0 0-8.84-8.76z" transform="translate(-1090.57 -82.03)"/><path class="cls-4" d="M1264.92 179.58a1 1 0 0 1-.73-.32l-17.91-20.08a1 1 0 0 1 1.45-1.3l17.91 20.12a1 1 0 0 1-.72 1.58z" transform="translate(-1090.57 -82.03)"/><path class="cls-4" d="M1255.2 183h-.06a1 1 0 0 1-.92-1l1.53-26.86a1 1 0 0 1 1.94.11l-1.53 26.86a1 1 0 0 1-.96.89z" transform="translate(-1090.57 -82.03)"/><path class="cls-4" d="M1246 178.53a1 1 0 0 1-.65-1.7l20-18a1 1 0 0 1 1.3 1.45l-20 18a1 1 0 0 1-.65.25z" transform="translate(-1090.57 -82.03)"/><path class="cls-4" d="M1269.42 170.29h-.05l-26.87-1.47a1 1 0 0 1-.92-1 1 1 0 0 1 1-.92l26.87 1.47a1 1 0 0 1-.03 1.92zM1115.67 150.54a1 1 0 0 1-.73-.32l-19.32-21.66a1 1 0 0 1 1.45-1.3l19.32 21.66a1 1 0 0 1-.72 1.62z" transform="translate(-1090.57 -82.03)"/><path class="cls-4" d="M1105.17 154.2h-.06a1 1 0 0 1-.92-1l1.66-29a1 1 0 0 1 1.94.11l-1.66 29a1 1 0 0 1-.96.89z" transform="translate(-1090.57 -82.03)"/><path class="cls-4" d="M1095.22 149.41a1 1 0 0 1-.65-1.7l21.62-19.37a1 1 0 0 1 1.3 1.45l-21.62 19.37a1 1 0 0 1-.65.25z" transform="translate(-1090.57 -82.03)"/><path class="cls-4" d="M1120.52 140.52h-.05l-29-1.58a1 1 0 0 1-.92-1 1 1 0 0 1 1-.92l29 1.58a1 1 0 0 1-.03 1.92z" transform="translate(-1090.57 -82.03)"/><path class="cls-5" d="M1220.55 235.21h-22.63a2.5 2.5 0 1 1 0-5h22.63a2.5 2.5 0 1 1 0 5zM1220.55 254.21h-22.63c-1.42 0-2.57-.58-2.57-2s1.15-2 2.57-2h22.63c1.42 0 2.57.58 2.57 2s-1.12 2-2.57 2zM1218.49 274.21h-20.58a2.5 2.5 0 1 1 0-5h20.58a2.5 2.5 0 1 1 0 5z" transform="translate(-1090.57 -82.03)"/><path class="cls-4" d="M1215.6 367.57a11.27 11.27 0 0 0 .06-1.33l-.17-92.13h-14.73v-2h14.73V253.2h-14.72v-2h14.72v-18.91h-14.73v-2h14.72v-21.84c4.9-1 8.43-3.76 8.43-7 0-4.09-5.51-7.4-12.29-7.39l-38.33.07c-6.77 0-12.26 3.33-12.26 7.43 0 3.29 3.55 6.06 8.46 7l.29 157.93a11.91 11.91 0 0 0 .18 2v.62c0 13.1 10.3 23.71 22.93 23.68s22.88-10.66 22.87-23.75c-.13-.64-.14-1.04-.16-1.47z" transform="translate(-1090.57 -82.03)"/><path class="cls-2" d="M1169.19 175.35a6.94 6.94 0 1 1 6.92-7 6.95 6.95 0 0 1-6.92 7zm0-10.81a3.87 3.87 0 1 0 3.88 3.86 3.86 3.86 0 0 0-3.91-3.86zM1196.58 147.13a6.23 6.23 0 1 1 6.22-6.23 6.22 6.22 0 0 1-6.22 6.23zm0-9.38a3.16 3.16 0 1 0 3.17 3.15 3.16 3.16 0 0 0-3.19-3.14z" transform="translate(-1090.57 -82.03)"/><path class="cls-3" d="M1157.21 108.79a6.72 6.72 0 1 1 6.71-6.73 6.72 6.72 0 0 1-6.71 6.73zm0-10.13a3.41 3.41 0 1 0 3.42 3.4 3.41 3.41 0 0 0-3.44-3.4zM1199.85 182.77a10.36 10.36 0 1 1 10.35-10.38 10.37 10.37 0 0 1-10.35 10.38zm0-16.64a6.27 6.27 0 1 0 6.29 6.26 6.28 6.28 0 0 0-6.32-6.26z" transform="translate(-1090.57 -82.03)"/><path class="cls-2" d="M1231.86 126.86a12.26 12.26 0 1 1 12.26-12.28 12.26 12.26 0 0 1-12.26 12.28zm0-20.62a8.37 8.37 0 0 0 0 16.73 8.37 8.37 0 0 0 0-16.73zM1191.75 105.72a11.85 11.85 0 1 1 11.82-11.87 11.86 11.86 0 0 1-11.82 11.87zm0-20.62a8.78 8.78 0 1 0 8.8 8.76 8.77 8.77 0 0 0-8.84-8.76z" transform="translate(-1090.57 -82.03)"/><path class="cls-4" d="M1264.92 179.58a1 1 0 0 1-.73-.32l-17.91-20.08a1 1 0 0 1 1.45-1.3l17.91 20.12a1 1 0 0 1-.72 1.58z" transform="translate(-1090.57 -82.03)"/><path class="cls-4" d="M1255.2 183h-.06a1 1 0 0 1-.92-1l1.53-26.86a1 1 0 0 1 1.94.11l-1.53 26.86a1 1 0 0 1-.96.89z" transform="translate(-1090.57 -82.03)"/><path class="cls-4" d="M1246 178.53a1 1 0 0 1-.65-1.7l20-18a1 1 0 0 1 1.3 1.45l-20 18a1 1 0 0 1-.65.25z" transform="translate(-1090.57 -82.03)"/><path class="cls-4" d="M1269.42 170.29h-.05l-26.87-1.47a1 1 0 0 1-.92-1 1 1 0 0 1 1-.92l26.87 1.47a1 1 0 0 1-.03 1.92zM1115.67 150.54a1 1 0 0 1-.73-.32l-19.32-21.66a1 1 0 0 1 1.45-1.3l19.32 21.66a1 1 0 0 1-.72 1.62z" transform="translate(-1090.57 -82.03)"/><path class="cls-4" d="M1105.17 154.2h-.06a1 1 0 0 1-.92-1l1.66-29a1 1 0 0 1 1.94.11l-1.66 29a1 1 0 0 1-.96.89z" transform="translate(-1090.57 -82.03)"/><path class="cls-4" d="M1095.22 149.41a1 1 0 0 1-.65-1.7l21.62-19.37a1 1 0 0 1 1.3 1.45l-21.62 19.37a1 1 0 0 1-.65.25z" transform="translate(-1090.57 -82.03)"/><path class="cls-4" d="M1120.52 140.52h-.05l-29-1.58a1 1 0 0 1-.92-1 1 1 0 0 1 1-.92l29 1.58a1 1 0 0 1-.03 1.92z" transform="translate(-1090.57 -82.03)"/><path class="cls-5" d="M1220.55 235.21h-22.63a2.5 2.5 0 1 1 0-5h22.63a2.5 2.5 0 1 1 0 5zM1220.55 254.21h-22.63c-1.42 0-2.57-.58-2.57-2s1.15-2 2.57-2h22.63c1.42 0 2.57.58 2.57 2s-1.12 2-2.57 2zM1218.49 274.21h-20.58a2.5 2.5 0 1 1 0-5h20.58a2.5 2.5 0 1 1 0 5z" transform="translate(-1090.57 -82.03)"/><path class="cls-6" d="M1320.37 292.87a41.4 41.4 0 0 0-7.6-17.83l5.11-5.11-9.09-9.09-5.2 5.19a41.2 41.2 0 0 0-17.75-7.28v-7.42H1273v7.42a41.35 41.35 0 0 0-17.75 7.28l-5.19-5.19-9.09 9.09 5.11 5.11a41.37 41.37 0 0 0-7.6 17.83h-7v12.86h6.86a41.17 41.17 0 0 0 7.34 18.24l-4.7 4.7 9.1 9.09 4.61-4.61a41.41 41.41 0 0 0 18.33 7.69v6.43h12.86v-6.43a41.39 41.39 0 0 0 18.33-7.69l4.61 4.61 9.09-9.09-4.7-4.7a41.32 41.32 0 0 0 7.35-18.24h6.86v-12.86h-7zm-41 19.78a13.35 13.35 0 1 1 13.35-13.35 13.35 13.35 0 0 1-13.31 13.35zM1339.41 204.13a31.42 31.42 0 0 0-10.65-10.19l2-5.1-9.07-3.63-2.07 5.19a31.35 31.35 0 0 0-14.59.23l-2.22-5.19-9 3.85 2.22 5.19a31.46 31.46 0 0 0-10.22 10.4l-5.18-2.07-3.64 9.07 5.1 2a31.43 31.43 0 0 0 0 14.74l-4.9 2.1 3.85 9 4.8-2.06a31.46 31.46 0 0 0 10.59 10.56l-1.87 4.69 9.08 3.63 1.85-4.6a31.41 31.41 0 0 0 15.11-.11l1.93 4.49 9-3.85-1.93-4.49a31.33 31.33 0 0 0 10.51-10.86l4.61 1.85 3.63-9.08-4.65-1.89a31.48 31.48 0 0 0-.33-15l4.79-2.05-3.85-9zm-22.7 26.08a10.15 10.15 0 1 1 5.34-13.32 10.15 10.15 0 0 1-5.34 13.33z" transform="translate(-1090.57 -82.03)"/><path class="cls-4" d="M1399.61 261.25a37.44 37.44 0 0 0-15.14-8.86l1-6.47-11.51-1.71-1 6.58a37.36 37.36 0 0 0-16.83 4.28l-4-5.39-9.35 6.93 4 5.39a37.29 37.29 0 0 0-9 14.87l-6.58-1-1.71 11.51 6.48 1a37.32 37.32 0 0 0 4.09 17.06l-5.06 3.76 6.93 9.35 5-3.7a37.27 37.27 0 0 0 15.17 9.3l-.88 6 11.51 1.71.87-5.84a37.49 37.49 0 0 0 17.47-4.3l3.46 4.68 9.35-6.94-3.47-4.68a37.44 37.44 0 0 0 9.18-15.47l5.84.86 1.7-11.51-5.95-.88a37.44 37.44 0 0 0-4.5-17.23l5-3.7-6.93-9.35zm-19.11 36.46a12.08 12.08 0 1 1 2.51-16.9 12.07 12.07 0 0 1-2.51 16.9z" transform="translate(-1090.57 -82.03)"/></svg>