<svg id="Laag_1" data-name="Laag 1" xmlns="http://www.w3.org/2000/svg" viewBox="0 0 390 329.42"><defs><style>.cls-1{fill:none}.cls-2{opacity:.21}.cls-3{clip-path:url(#clip-path)}.cls-4{fill:#fff}.cls-5{fill:#fefefe}.cls-6{fill:#fdfdfd}.cls-7{fill:#fcfcfc}.cls-8{fill:#fbfbfb}.cls-9{fill:#fafafa}.cls-10{fill:#f9f9f9}.cls-11{fill:#f8f8f8}.cls-12{fill:#f7f7f7}.cls-13{fill:#f6f6f6}.cls-14{fill:#f5f5f5}.cls-15{fill:#f5f5f4}.cls-16{fill:#f4f4f4}.cls-17{fill:#f4f4f3}.cls-18{fill:#f3f3f3}.cls-19{fill:#f2f2f2}.cls-20{fill:#f1f1f1}.cls-21{fill:#f0f0f0}.cls-22{fill:#efefef}.cls-23{fill:#eee}.cls-24{fill:#eeeeed}.cls-25{fill:#ededed}.cls-26{fill:#ececec}.cls-27{fill:#ebebeb}.cls-28{fill:#eaeaea}.cls-29{fill:#e9e9e9}.cls-30{fill:#e8e8e8}.cls-31{fill:#e8e8e7}.cls-32{fill:#e7e7e7}.cls-33{fill:#e6e6e6}.cls-34{fill:#e6e6e5}.cls-35{fill:#e5e5e5}.cls-36{fill:#e4e4e4}.cls-37{fill:#e3e3e3}.cls-38{fill:#e3e3e2}.cls-39{fill:#e2e2e2}.cls-40{fill:#e1e1e1}.cls-41{fill:#e0e0e0}.cls-42{fill:#e0e0df}.cls-43{fill:#dfdfdf}.cls-44{fill:#dedede}.cls-45{fill:#ddd}.cls-46{fill:#dcdcdc}.cls-47{fill:#dcdcdb}.cls-48{fill:#dbdbdb}.cls-49{fill:#dadada}.cls-50{fill:#d9d9d9}.cls-51{fill:#d8d8d8}.cls-52{fill:#d8d8d7}.cls-53{fill:#d7d7d6}.cls-54{fill:#d6d6d6}.cls-55{fill:#d5d5d5}.cls-56{fill:#d4d4d4}.cls-57{fill:#d3d3d3}.cls-58{fill:#d2d2d2}.cls-59{fill:#d2d2d1}.cls-60{fill:#d1d1d0}.cls-61{fill:#d0d0cf}.cls-62{fill:#cfcfcf}.cls-63{fill:#cecece}.cls-64{fill:#cdcdcd}.cls-65{fill:#ccc}.cls-66{fill:#cbcbcb}.cls-67{fill:#cacaca}.cls-68{fill:#c9c9c9}.cls-69{fill:#c9c9c8}.cls-70{fill:#c8c8c7}.cls-71{fill:#c7c7c6}.cls-72{fill:#c6c6c5}.cls-73{fill:#c5c5c4}.cls-74{fill:#c4c4c3}.cls-75{fill:#c3c3c2}.cls-76{fill:#c2c2c1}.cls-77{fill:#c1c1c0}.cls-78{fill:#c0c0bf}.cls-79{fill:#bfbfbe}.cls-80{fill:#bebebd}.cls-81{fill:#bdbdbc}.cls-82{fill:#bcbcbb}.cls-83{fill:#bbbbba}.cls-84{fill:#babab9}.cls-85{fill:#b9b9b8}.cls-86{fill:#b8b8b7}.cls-87{fill:#b7b7b6}.cls-88{fill:#b6b6b5}.cls-89{fill:#b5b5b4}.cls-90{fill:#b4b4b3}.cls-91{fill:#b3b3b2}.cls-92{fill:#b2b2b1}.cls-93{fill:#b1b1b0}.cls-94{fill:#b0b0af}.cls-95{fill:#afafae}.cls-96{fill:#aeaead}.cls-97{fill:#acacac}.cls-98{fill:#ababab}.cls-99{fill:#aaa}.cls-100{fill:#a9a9a8}.cls-101{fill:#a8a8a7}.cls-102{fill:#a7a7a6}.cls-103{fill:#a6a6a5}.cls-104{fill:#a5a5a4}.cls-105{fill:#a4a4a3}.cls-106{fill:#a3a3a2}.cls-107{fill:#a2a2a1}.cls-108{fill:#a0a0a0}.cls-109{fill:#9f9f9e}.cls-110{fill:#9e9e9d}.cls-111{fill:#9d9d9c}.cls-112{fill:#9c9c9b}.cls-113{fill:#9b9b9a}.cls-114{fill:#9a9a99}.cls-115{fill:#989898}.cls-116{fill:#979796}.cls-117{fill:#969695}.cls-118{fill:#959594}.cls-119{fill:#949493}.cls-120{fill:#939392}.cls-121{fill:#919190}.cls-122{fill:#90908f}.cls-123{fill:#8f8f8e}.cls-124{fill:#8e8e8d}.cls-125{fill:#8d8d8c}.cls-126{fill:#8b8b8a}.cls-127{fill:#8a8a89}.cls-128{fill:#898988}.cls-129{fill:#888887}.cls-130{fill:#878786}.cls-131{fill:#858584}.cls-132{fill:#848483}.cls-133{fill:#838382}.cls-134{fill:#828281}.cls-135{fill:#80807f}.cls-136{fill:#7f7f7e}.cls-137{fill:#7e7e7d}.cls-138{fill:#7d7d7c}.cls-139{fill:#7b7b7a}.cls-140{fill:#7a7a79}.cls-141{fill:#797978}.cls-142{fill:#787876}.cls-143{fill:#767675}.cls-144{fill:#757574}.cls-145{fill:#747473}.cls-146{fill:#737371}.cls-147{fill:#717170}.cls-148{fill:#70706f}.cls-149{fill:#6f6f6d}.cls-150{fill:#6d6d6c}.cls-151{fill:#6c6c6b}.cls-152{fill:#6b6b69}.cls-153{fill:#696968}.cls-154{fill:#686867}.cls-155{fill:#676765}.cls-156{fill:#666664}.cls-157{fill:#646463}.cls-158{fill:#636361}.cls-159{fill:#626260}.cls-160{fill:#60605f}.cls-161{fill:#5f5f5d}.cls-162{fill:#5d5d5c}.cls-163{fill:#5c5c5b}.cls-164{fill:#5b5b59}.cls-165{fill:#595958}.cls-166{fill:#585857}.cls-167{fill:#575755}.cls-168{fill:#555554}.cls-169{fill:#545452}.cls-170{fill:#535351}.cls-171{fill:#515150}.cls-172{fill:#50504e}.cls-173{fill:#4e4e4d}.cls-174{fill:#4d4d4b}.cls-175{fill:#4c4c4a}.cls-176{fill:#4a4a49}.cls-177{fill:#494947}.cls-178{fill:#474746}.cls-179{fill:#464644}.cls-180{fill:#454543}.cls-181{fill:#434341}.cls-182{fill:#424240}.cls-183{fill:#40403f}.cls-184{fill:#3f3f3d}.cls-185{fill:#3d3d3c}.cls-186{fill:#3c3c3a}.cls-187{fill:#3b3b39}.cls-188{fill:#393937}.cls-189{fill:#383836}.cls-190{fill:#363634}.cls-191{fill:#353533}.cls-192{fill:#333332}.cls-193{fill:#323230}.cls-194{fill:#30302f}.cls-195{fill:#2f2f2d}.cls-196{fill:#2d2d2c}.cls-197{fill:#2c2c2a}.cls-198{fill:#2a2a29}.cls-199{fill:#292927}.cls-200{fill:#282826}.cls-201{fill:#262624}.cls-202{fill:#252523}.cls-203{fill:#232321}.cls-204{fill:#222220}.cls-205{fill:#20201e}.cls-206{fill:#1f1f1d}.cls-207{fill:#1d1d1b}.cls-208{fill:#eb5f3b;fill-rule:evenodd}.cls-209{fill:#1d80a8}.cls-210{fill:#37aae1}.cls-211{fill:#a09f9f}</style><clipPath id="clip-path" transform="translate(-538.31 -97.1)"><ellipse class="cls-1" cx="732.9" cy="402.84" rx="194.95" ry="20.5"/></clipPath></defs><title>result-poc</title><g class="cls-2 cls-3"><path class="cls-4" d="M0 285.11h390v41H0z"/><ellipse class="cls-4" cx="194.6" cy="305.74" rx="140.23" ry="23.68"/><ellipse class="cls-4" cx="194.6" cy="305.74" rx="139.62" ry="23.58"/><ellipse class="cls-4" cx="194.6" cy="305.74" rx="139" ry="23.47"/><ellipse class="cls-4" cx="194.6" cy="305.74" rx="138.39" ry="23.37"/><ellipse class="cls-4" cx="194.6" cy="305.74" rx="137.77" ry="23.26"/><ellipse class="cls-5" cx="194.6" cy="305.74" rx="137.16" ry="23.16"/><ellipse class="cls-5" cx="194.6" cy="305.74" rx="136.54" ry="23.06"/><ellipse class="cls-5" cx="194.6" cy="305.74" rx="135.93" ry="22.95"/><ellipse class="cls-5" cx="194.6" cy="305.74" rx="135.31" ry="22.85"/><ellipse class="cls-6" cx="194.6" cy="305.74" rx="134.7" ry="22.74"/><ellipse class="cls-6" cx="194.6" cy="305.74" rx="134.08" ry="22.64"/><ellipse class="cls-6" cx="194.6" cy="305.74" rx="133.47" ry="22.54"/><ellipse class="cls-7" cx="194.6" cy="305.74" rx="132.85" ry="22.43"/><ellipse class="cls-7" cx="194.6" cy="305.74" rx="132.24" ry="22.33"/><ellipse class="cls-7" cx="194.6" cy="305.74" rx="131.62" ry="22.23"/><ellipse class="cls-8" cx="194.6" cy="305.74" rx="131.01" ry="22.12"/><ellipse class="cls-8" cx="194.6" cy="305.74" rx="130.39" ry="22.02"/><ellipse class="cls-8" cx="194.6" cy="305.74" rx="129.78" ry="21.91"/><ellipse class="cls-9" cx="194.6" cy="305.74" rx="129.16" ry="21.81"/><ellipse class="cls-9" cx="194.6" cy="305.74" rx="128.55" ry="21.71"/><ellipse class="cls-10" cx="194.6" cy="305.74" rx="127.93" ry="21.6"/><ellipse class="cls-10" cx="194.6" cy="305.74" rx="127.32" ry="21.5"/><ellipse class="cls-11" cx="194.6" cy="305.74" rx="126.7" ry="21.39"/><ellipse class="cls-11" cx="194.6" cy="305.74" rx="126.09" ry="21.29"/><ellipse class="cls-11" cx="194.6" cy="305.74" rx="125.47" ry="21.19"/><ellipse class="cls-12" cx="194.6" cy="305.74" rx="124.86" ry="21.08"/><ellipse class="cls-12" cx="194.6" cy="305.74" rx="124.24" ry="20.98"/><ellipse class="cls-13" cx="194.6" cy="305.74" rx="123.63" ry="20.88"/><ellipse class="cls-13" cx="194.6" cy="305.74" rx="123.01" ry="20.77"/><ellipse class="cls-14" cx="194.6" cy="305.74" rx="122.4" ry="20.67"/><ellipse class="cls-15" cx="194.6" cy="305.74" rx="121.78" ry="20.56"/><ellipse class="cls-16" cx="194.6" cy="305.74" rx="121.17" ry="20.46"/><ellipse class="cls-17" cx="194.6" cy="305.74" rx="120.55" ry="20.36"/><ellipse class="cls-18" cx="194.6" cy="305.74" rx="119.94" ry="20.25"/><ellipse class="cls-19" cx="194.6" cy="305.74" rx="119.32" ry="20.15"/><ellipse class="cls-19" cx="194.6" cy="305.74" rx="118.71" ry="20.04"/><ellipse class="cls-20" cx="194.6" cy="305.74" rx="118.09" ry="19.94"/><ellipse class="cls-20" cx="194.6" cy="305.74" rx="117.48" ry="19.84"/><ellipse class="cls-21" cx="194.6" cy="305.74" rx="116.86" ry="19.73"/><ellipse class="cls-22" cx="194.6" cy="305.74" rx="116.25" ry="19.63"/><ellipse class="cls-22" cx="194.6" cy="305.74" rx="115.63" ry="19.53"/><ellipse class="cls-23" cx="194.6" cy="305.74" rx="115.02" ry="19.42"/><ellipse class="cls-24" cx="194.6" cy="305.74" rx="114.4" ry="19.32"/><ellipse class="cls-25" cx="194.6" cy="305.74" rx="113.79" ry="19.21"/><ellipse class="cls-26" cx="194.6" cy="305.74" rx="113.17" ry="19.11"/><ellipse class="cls-26" cx="194.6" cy="305.74" rx="112.56" ry="19.01"/><ellipse class="cls-27" cx="194.6" cy="305.74" rx="111.94" ry="18.9"/><ellipse class="cls-28" cx="194.6" cy="305.74" rx="111.33" ry="18.8"/><ellipse class="cls-28" cx="194.6" cy="305.74" rx="110.71" ry="18.69"/><ellipse class="cls-29" cx="194.6" cy="305.74" rx="110.1" ry="18.59"/><ellipse class="cls-30" cx="194.6" cy="305.74" rx="109.48" ry="18.49"/><ellipse class="cls-31" cx="194.6" cy="305.74" rx="108.86" ry="18.38"/><ellipse class="cls-32" cx="194.6" cy="305.74" rx="108.25" ry="18.28"/><ellipse class="cls-33" cx="194.6" cy="305.74" rx="107.63" ry="18.17"/><ellipse class="cls-34" cx="194.6" cy="305.74" rx="107.02" ry="18.07"/><ellipse class="cls-35" cx="194.6" cy="305.74" rx="106.4" ry="17.97"/><ellipse class="cls-36" cx="194.6" cy="305.74" rx="105.79" ry="17.86"/><ellipse class="cls-37" cx="194.6" cy="305.74" rx="105.17" ry="17.76"/><ellipse class="cls-38" cx="194.6" cy="305.74" rx="104.56" ry="17.66"/><ellipse class="cls-39" cx="194.6" cy="305.74" rx="103.94" ry="17.55"/><ellipse class="cls-40" cx="194.6" cy="305.74" rx="103.33" ry="17.45"/><ellipse class="cls-41" cx="194.6" cy="305.74" rx="102.71" ry="17.34"/><ellipse class="cls-42" cx="194.6" cy="305.74" rx="102.1" ry="17.24"/><ellipse class="cls-43" cx="194.6" cy="305.74" rx="101.48" ry="17.14"/><ellipse class="cls-44" cx="194.6" cy="305.74" rx="100.87" ry="17.03"/><ellipse class="cls-45" cx="194.6" cy="305.74" rx="100.25" ry="16.93"/><ellipse class="cls-46" cx="194.6" cy="305.74" rx="99.64" ry="16.82"/><ellipse class="cls-47" cx="194.6" cy="305.74" rx="99.02" ry="16.72"/><ellipse class="cls-48" cx="194.6" cy="305.74" rx="98.41" ry="16.62"/><ellipse class="cls-49" cx="194.6" cy="305.74" rx="97.79" ry="16.51"/><ellipse class="cls-50" cx="194.6" cy="305.74" rx="97.18" ry="16.41"/><ellipse class="cls-51" cx="194.6" cy="305.74" rx="96.56" ry="16.31"/><ellipse class="cls-52" cx="194.6" cy="305.74" rx="95.95" ry="16.2"/><ellipse class="cls-53" cx="194.6" cy="305.74" rx="95.33" ry="16.1"/><ellipse class="cls-54" cx="194.6" cy="305.74" rx="94.72" ry="15.99"/><ellipse class="cls-55" cx="194.6" cy="305.74" rx="94.1" ry="15.89"/><ellipse class="cls-56" cx="194.6" cy="305.74" rx="93.49" ry="15.79"/><ellipse class="cls-57" cx="194.6" cy="305.74" rx="92.87" ry="15.68"/><ellipse class="cls-58" cx="194.6" cy="305.74" rx="92.26" ry="15.58"/><ellipse class="cls-59" cx="194.6" cy="305.74" rx="91.64" ry="15.47"/><ellipse class="cls-60" cx="194.6" cy="305.74" rx="91.03" ry="15.37"/><ellipse class="cls-61" cx="194.6" cy="305.74" rx="90.41" ry="15.27"/><ellipse class="cls-62" cx="194.6" cy="305.74" rx="89.8" ry="15.16"/><ellipse class="cls-63" cx="194.6" cy="305.74" rx="89.18" ry="15.06"/><ellipse class="cls-64" cx="194.6" cy="305.74" rx="88.57" ry="14.96"/><ellipse class="cls-65" cx="194.6" cy="305.74" rx="87.95" ry="14.85"/><ellipse class="cls-66" cx="194.6" cy="305.74" rx="87.34" ry="14.75"/><ellipse class="cls-67" cx="194.6" cy="305.74" rx="86.72" ry="14.64"/><ellipse class="cls-68" cx="194.6" cy="305.74" rx="86.11" ry="14.54"/><ellipse class="cls-69" cx="194.6" cy="305.74" rx="85.49" ry="14.44"/><ellipse class="cls-70" cx="194.6" cy="305.74" rx="84.88" ry="14.33"/><ellipse class="cls-71" cx="194.6" cy="305.74" rx="84.26" ry="14.23"/><ellipse class="cls-72" cx="194.6" cy="305.74" rx="83.65" ry="14.12"/><ellipse class="cls-73" cx="194.6" cy="305.74" rx="83.03" ry="14.02"/><ellipse class="cls-74" cx="194.6" cy="305.74" rx="82.42" ry="13.92"/><ellipse class="cls-75" cx="194.6" cy="305.74" rx="81.8" ry="13.81"/><ellipse class="cls-76" cx="194.6" cy="305.74" rx="81.19" ry="13.71"/><ellipse class="cls-77" cx="194.6" cy="305.74" rx="80.57" ry="13.61"/><ellipse class="cls-78" cx="194.6" cy="305.74" rx="79.96" ry="13.5"/><ellipse class="cls-79" cx="194.6" cy="305.74" rx="79.34" ry="13.4"/><ellipse class="cls-80" cx="194.6" cy="305.74" rx="78.73" ry="13.29"/><ellipse class="cls-81" cx="194.6" cy="305.74" rx="78.11" ry="13.19"/><ellipse class="cls-82" cx="194.6" cy="305.74" rx="77.5" ry="13.09"/><ellipse class="cls-83" cx="194.6" cy="305.74" rx="76.88" ry="12.98"/><ellipse class="cls-84" cx="194.6" cy="305.74" rx="76.27" ry="12.88"/><ellipse class="cls-85" cx="194.6" cy="305.74" rx="75.65" ry="12.77"/><ellipse class="cls-86" cx="194.6" cy="305.74" rx="75.04" ry="12.67"/><ellipse class="cls-87" cx="194.6" cy="305.74" rx="74.42" ry="12.57"/><ellipse class="cls-88" cx="194.6" cy="305.74" rx="73.81" ry="12.46"/><ellipse class="cls-89" cx="194.6" cy="305.74" rx="73.19" ry="12.36"/><ellipse class="cls-90" cx="194.6" cy="305.74" rx="72.58" ry="12.26"/><ellipse class="cls-91" cx="194.6" cy="305.74" rx="71.96" ry="12.15"/><ellipse class="cls-92" cx="194.6" cy="305.74" rx="71.35" ry="12.05"/><ellipse class="cls-93" cx="194.6" cy="305.74" rx="70.73" ry="11.94"/><ellipse class="cls-94" cx="194.6" cy="305.74" rx="70.12" ry="11.84"/><ellipse class="cls-95" cx="194.6" cy="305.74" rx="69.5" ry="11.74"/><ellipse class="cls-96" cx="194.6" cy="305.74" rx="68.89" ry="11.63"/><ellipse class="cls-97" cx="194.6" cy="305.74" rx="68.27" ry="11.53"/><ellipse class="cls-98" cx="194.6" cy="305.74" rx="67.66" ry="11.42"/><ellipse class="cls-99" cx="194.6" cy="305.74" rx="67.04" ry="11.32"/><ellipse class="cls-100" cx="194.6" cy="305.74" rx="66.43" ry="11.22"/><ellipse class="cls-101" cx="194.6" cy="305.74" rx="65.81" ry="11.11"/><ellipse class="cls-102" cx="194.6" cy="305.74" rx="65.2" ry="11.01"/><ellipse class="cls-103" cx="194.6" cy="305.74" rx="64.58" ry="10.9"/><ellipse class="cls-104" cx="194.6" cy="305.74" rx="63.97" ry="10.8"/><ellipse class="cls-105" cx="194.6" cy="305.74" rx="63.35" ry="10.7"/><ellipse class="cls-106" cx="194.6" cy="305.74" rx="62.74" ry="10.59"/><ellipse class="cls-107" cx="194.6" cy="305.74" rx="62.12" ry="10.49"/><ellipse class="cls-108" cx="194.6" cy="305.74" rx="61.51" ry="10.39"/><ellipse class="cls-109" cx="194.6" cy="305.74" rx="60.89" ry="10.28"/><ellipse class="cls-110" cx="194.6" cy="305.74" rx="60.28" ry="10.18"/><ellipse class="cls-111" cx="194.6" cy="305.74" rx="59.66" ry="10.07"/><ellipse class="cls-112" cx="194.6" cy="305.74" rx="59.05" ry="9.97"/><ellipse class="cls-113" cx="194.6" cy="305.74" rx="58.43" ry="9.87"/><ellipse class="cls-114" cx="194.6" cy="305.74" rx="57.82" ry="9.76"/><ellipse class="cls-115" cx="194.6" cy="305.74" rx="57.2" ry="9.66"/><ellipse class="cls-116" cx="194.6" cy="305.74" rx="56.59" ry="9.55"/><ellipse class="cls-117" cx="194.6" cy="305.74" rx="55.97" ry="9.45"/><ellipse class="cls-118" cx="194.6" cy="305.74" rx="55.36" ry="9.35"/><ellipse class="cls-119" cx="194.6" cy="305.74" rx="54.74" ry="9.24"/><ellipse class="cls-120" cx="194.6" cy="305.74" rx="54.12" ry="9.14"/><ellipse class="cls-121" cx="194.6" cy="305.74" rx="53.51" ry="9.04"/><ellipse class="cls-122" cx="194.6" cy="305.74" rx="52.89" ry="8.93"/><ellipse class="cls-123" cx="194.6" cy="305.74" rx="52.28" ry="8.83"/><ellipse class="cls-124" cx="194.6" cy="305.74" rx="51.66" ry="8.72"/><ellipse class="cls-125" cx="194.6" cy="305.74" rx="51.05" ry="8.62"/><ellipse class="cls-126" cx="194.6" cy="305.74" rx="50.43" ry="8.52"/><ellipse class="cls-127" cx="194.6" cy="305.74" rx="49.82" ry="8.41"/><ellipse class="cls-128" cx="194.6" cy="305.74" rx="49.2" ry="8.31"/><ellipse class="cls-129" cx="194.6" cy="305.74" rx="48.59" ry="8.2"/><ellipse class="cls-130" cx="194.6" cy="305.74" rx="47.97" ry="8.1"/><ellipse class="cls-131" cx="194.6" cy="305.74" rx="47.36" ry="8"/><ellipse class="cls-132" cx="194.6" cy="305.74" rx="46.74" ry="7.89"/><ellipse class="cls-133" cx="194.6" cy="305.74" rx="46.13" ry="7.79"/><ellipse class="cls-134" cx="194.6" cy="305.74" rx="45.51" ry="7.69"/><ellipse class="cls-135" cx="194.6" cy="305.74" rx="44.9" ry="7.58"/><ellipse class="cls-136" cx="194.6" cy="305.74" rx="44.28" ry="7.48"/><ellipse class="cls-137" cx="194.6" cy="305.74" rx="43.67" ry="7.37"/><ellipse class="cls-138" cx="194.6" cy="305.74" rx="43.05" ry="7.27"/><ellipse class="cls-139" cx="194.6" cy="305.74" rx="42.44" ry="7.17"/><ellipse class="cls-140" cx="194.6" cy="305.74" rx="41.82" ry="7.06"/><ellipse class="cls-141" cx="194.6" cy="305.74" rx="41.21" ry="6.96"/><ellipse class="cls-142" cx="194.6" cy="305.74" rx="40.59" ry="6.85"/><ellipse class="cls-143" cx="194.6" cy="305.74" rx="39.98" ry="6.75"/><ellipse class="cls-144" cx="194.6" cy="305.74" rx="39.36" ry="6.65"/><ellipse class="cls-145" cx="194.6" cy="305.74" rx="38.75" ry="6.54"/><ellipse class="cls-146" cx="194.6" cy="305.74" rx="38.13" ry="6.44"/><ellipse class="cls-147" cx="194.6" cy="305.74" rx="37.52" ry="6.34"/><ellipse class="cls-148" cx="194.6" cy="305.74" rx="36.9" ry="6.23"/><ellipse class="cls-149" cx="194.6" cy="305.74" rx="36.29" ry="6.13"/><ellipse class="cls-150" cx="194.6" cy="305.74" rx="35.67" ry="6.02"/><ellipse class="cls-151" cx="194.6" cy="305.74" rx="35.06" ry="5.92"/><ellipse class="cls-152" cx="194.6" cy="305.74" rx="34.44" ry="5.82"/><ellipse class="cls-153" cx="194.6" cy="305.74" rx="33.83" ry="5.71"/><ellipse class="cls-154" cx="194.6" cy="305.74" rx="33.21" ry="5.61"/><ellipse class="cls-155" cx="194.6" cy="305.74" rx="32.6" ry="5.5"/><ellipse class="cls-156" cx="194.6" cy="305.74" rx="31.98" ry="5.4"/><ellipse class="cls-157" cx="194.6" cy="305.74" rx="31.37" ry="5.3"/><ellipse class="cls-158" cx="194.6" cy="305.74" rx="30.75" ry="5.19"/><ellipse class="cls-159" cx="194.6" cy="305.74" rx="30.14" ry="5.09"/><ellipse class="cls-160" cx="194.6" cy="305.74" rx="29.52" ry="4.99"/><ellipse class="cls-161" cx="194.6" cy="305.74" rx="28.91" ry="4.88"/><ellipse class="cls-162" cx="194.6" cy="305.74" rx="28.29" ry="4.78"/><ellipse class="cls-163" cx="194.6" cy="305.74" rx="27.68" ry="4.67"/><ellipse class="cls-164" cx="194.6" cy="305.74" rx="27.06" ry="4.57"/><ellipse class="cls-165" cx="194.6" cy="305.74" rx="26.45" ry="4.47"/><ellipse class="cls-166" cx="194.6" cy="305.74" rx="25.83" ry="4.36"/><ellipse class="cls-167" cx="194.6" cy="305.74" rx="25.22" ry="4.26"/><ellipse class="cls-168" cx="194.6" cy="305.74" rx="24.6" ry="4.15"/><ellipse class="cls-169" cx="194.6" cy="305.74" rx="23.99" ry="4.05"/><ellipse class="cls-170" cx="194.6" cy="305.74" rx="23.37" ry="3.95"/><ellipse class="cls-171" cx="194.6" cy="305.74" rx="22.76" ry="3.84"/><ellipse class="cls-172" cx="194.6" cy="305.74" rx="22.14" ry="3.74"/><ellipse class="cls-173" cx="194.6" cy="305.74" rx="21.53" ry="3.63"/><ellipse class="cls-174" cx="194.6" cy="305.74" rx="20.91" ry="3.53"/><ellipse class="cls-175" cx="194.6" cy="305.74" rx="20.3" ry="3.43"/><ellipse class="cls-176" cx="194.6" cy="305.74" rx="19.68" ry="3.32"/><ellipse class="cls-177" cx="194.6" cy="305.74" rx="19.07" ry="3.22"/><ellipse class="cls-178" cx="194.6" cy="305.74" rx="18.45" ry="3.12"/><ellipse class="cls-179" cx="194.6" cy="305.74" rx="17.84" ry="3.01"/><ellipse class="cls-180" cx="194.6" cy="305.74" rx="17.22" ry="2.91"/><ellipse class="cls-181" cx="194.6" cy="305.74" rx="16.61" ry="2.8"/><ellipse class="cls-182" cx="194.6" cy="305.74" rx="15.99" ry="2.7"/><ellipse class="cls-183" cx="194.6" cy="305.74" rx="15.38" ry="2.6"/><ellipse class="cls-184" cx="194.6" cy="305.74" rx="14.76" ry="2.49"/><ellipse class="cls-185" cx="194.6" cy="305.74" rx="14.15" ry="2.39"/><ellipse class="cls-186" cx="194.6" cy="305.74" rx="13.53" ry="2.28"/><ellipse class="cls-187" cx="194.6" cy="305.74" rx="12.92" ry="2.18"/><ellipse class="cls-188" cx="194.6" cy="305.74" rx="12.3" ry="2.08"/><ellipse class="cls-189" cx="194.6" cy="305.74" rx="11.69" ry="1.97"/><ellipse class="cls-190" cx="194.6" cy="305.74" rx="11.07" ry="1.87"/><ellipse class="cls-191" cx="194.6" cy="305.74" rx="10.46" ry="1.77"/><ellipse class="cls-192" cx="194.6" cy="305.74" rx="9.84" ry="1.66"/><ellipse class="cls-193" cx="194.6" cy="305.74" rx="9.23" ry="1.56"/><ellipse class="cls-194" cx="194.6" cy="305.74" rx="8.61" ry="1.45"/><ellipse class="cls-195" cx="194.6" cy="305.74" rx="8" ry="1.35"/><ellipse class="cls-196" cx="194.6" cy="305.74" rx="7.38" ry="1.25"/><ellipse class="cls-197" cx="194.6" cy="305.74" rx="6.77" ry="1.14"/><ellipse class="cls-198" cx="194.6" cy="305.74" rx="6.15" ry="1.04"/><ellipse class="cls-199" cx="194.6" cy="305.74" rx="5.54" ry=".93"/><ellipse class="cls-200" cx="194.6" cy="305.74" rx="4.92" ry=".83"/><ellipse class="cls-201" cx="194.6" cy="305.74" rx="4.31" ry=".73"/><ellipse class="cls-202" cx="194.6" cy="305.74" rx="3.69" ry=".62"/><ellipse class="cls-203" cx="194.6" cy="305.74" rx="3.08" ry=".52"/><ellipse class="cls-204" cx="194.6" cy="305.74" rx="2.46" ry=".42"/><ellipse class="cls-205" cx="194.6" cy="305.74" rx="1.85" ry=".31"/><ellipse class="cls-206" cx="194.6" cy="305.74" rx="1.23" ry=".21"/><ellipse class="cls-207" cx="194.6" cy="305.74" rx=".62" ry=".1"/></g><path class="cls-208" d="M596.37 139.84l19.43-11.51s27.29 26.17 32.11 36c7.91-30.94 15.42-47 30.29-67.21l14.94 7.78s-28.24 44.1-29.71 81.22l-16 8.32s-39.11-48.38-51.06-54.6z" transform="translate(-538.31 -97.1)"/><path class="cls-209" d="M915.93 280.21s-51 3-77.08 38c1.65 1.27 11.17 7.44 11.17 7.44s5.77-8.83 20.16-18.15c12.87-8.34 29.68-15.28 43.48-14.89.55 0 2.09.1 2.62.17a42.26 42.26 0 0 0 .19-4.86 47.22 47.22 0 0 0-.54-7.71z" transform="translate(-538.31 -97.1)"/><path class="cls-209" d="M897.26 338s-3-51-38-77.08c-1.27 1.66-7.44 11.17-7.44 11.17s8.84 5.77 18.15 20.16c6.62 10.22 12.41 24 14.13 35.72a83.47 83.47 0 0 1 1.16 10.59 55.93 55.93 0 0 0 12-.56z" transform="translate(-538.31 -97.1)"/><path class="cls-210" d="M766.3 337.18c-18.68-.09-28-.12-33.44-5.68s-5.1-12.61-4.88-20.15c0-1.49.08-3.07.09-4.72.11-22-20.59-35.76-20.49-58.62a59.16 59.16 0 0 1 118.33.59c-.1 22.53-20.93 36.1-21.08 58.38v4.75c.15 7.54.28 14.66-5.08 20.1s-14.75 5.45-33.45 5.35z" transform="translate(-538.31 -97.1)"/><path class="cls-211" d="M801.89 349.63c0 2.92-3 5.27-6.56 5.25l-59.9-.29c-3.61 0-6.53-2.4-6.51-5.31 0-2.92 3-5.28 6.56-5.25l59.91.29c3.6 0 6.52 2.4 6.5 5.32zM801.82 364c0 2.92-3 5.28-6.56 5.26l-59.91-.3c-3.62 0-6.53-2.4-6.52-5.32 0-2.92 3-5.28 6.57-5.25l59.91.3c3.6 0 6.53 2.39 6.5 5.31zM801.75 378.31c0 2.92-3 5.27-6.56 5.25l-59.91-.3c-3.62 0-6.53-2.4-6.51-5.32 0-2.92 3-5.26 6.57-5.25l59.9.29c3.61 0 6.53 2.41 6.51 5.32zM785.89 392.57c0 2.44-2.46 4.4-5.47 4.38l-30.48-.15c-3 0-5.45-2-5.43-4.43 0-2.43 2.46-4.39 5.47-4.37l30.5.15c3 0 5.44 2 5.42 4.42z" transform="translate(-538.31 -97.1)"/><path class="cls-210" d="M811 189a4.65 4.65 0 0 1-3.82-7.91l27.33-27.1a4.64 4.64 0 0 1 6.54 6.6l-27.32 27.1A4.64 4.64 0 0 1 811 189zM841.21 229.74a4.64 4.64 0 0 1-2.59-8.78l34.54-17a4.64 4.64 0 0 1 4.09 8.34l-34.55 17a4.54 4.54 0 0 1-1.49.44zM694.15 237.48a4.59 4.59 0 0 1-2-.22l-36.41-12.42a4.64 4.64 0 0 1 3-8.79l36.41 12.43a4.64 4.64 0 0 1-1 9zM719.16 195a4.64 4.64 0 0 1-3.85-1.34l-27.1-27.32a4.64 4.64 0 0 1 6.59-6.54l27.11 27.32a4.64 4.64 0 0 1-2.75 7.88zM765 175.81h-.57a4.65 4.65 0 0 1-4.63-4.67l.16-38.48a4.64 4.64 0 1 1 9.28 0l-.15 38.48a4.65 4.65 0 0 1-4.09 4.67z" transform="translate(-538.31 -97.1)"/></svg>