<svg id="Laag_1" data-name="Laag 1" xmlns="http://www.w3.org/2000/svg" viewBox="0 0 442 316"><defs><style>.cls-1{fill:none}.cls-2{opacity:.21}.cls-3{clip-path:url(#clip-path)}.cls-4{fill:#fff}.cls-5{fill:#fefefe}.cls-6{fill:#fdfdfd}.cls-7{fill:#fcfcfc}.cls-8{fill:#fbfbfb}.cls-9{fill:#fafafa}.cls-10{fill:#f9f9f9}.cls-11{fill:#f8f8f8}.cls-12{fill:#f7f7f7}.cls-13{fill:#f6f6f6}.cls-14{fill:#f5f5f5}.cls-15{fill:#f5f5f4}.cls-16{fill:#f4f4f4}.cls-17{fill:#f4f4f3}.cls-18{fill:#f3f3f3}.cls-19{fill:#f2f2f2}.cls-20{fill:#f1f1f1}.cls-21{fill:#f0f0f0}.cls-22{fill:#efefef}.cls-23{fill:#eee}.cls-24{fill:#eeeeed}.cls-25{fill:#ededed}.cls-26{fill:#ececec}.cls-27{fill:#ebebeb}.cls-28{fill:#eaeaea}.cls-29{fill:#e9e9e9}.cls-30{fill:#e8e8e8}.cls-31{fill:#e8e8e7}.cls-32{fill:#e7e7e7}.cls-33{fill:#e6e6e6}.cls-34{fill:#e6e6e5}.cls-35{fill:#e5e5e5}.cls-36{fill:#e4e4e4}.cls-37{fill:#e3e3e3}.cls-38{fill:#e3e3e2}.cls-39{fill:#e2e2e2}.cls-40{fill:#e1e1e1}.cls-41{fill:#e0e0e0}.cls-42{fill:#e0e0df}.cls-43{fill:#dfdfdf}.cls-44{fill:#dedede}.cls-45{fill:#ddd}.cls-46{fill:#dcdcdc}.cls-47{fill:#dcdcdb}.cls-48{fill:#dbdbdb}.cls-49{fill:#dadada}.cls-50{fill:#d9d9d9}.cls-51{fill:#d8d8d8}.cls-52{fill:#d8d8d7}.cls-53{fill:#d7d7d6}.cls-54{fill:#d6d6d6}.cls-55{fill:#d5d5d5}.cls-56{fill:#d4d4d4}.cls-57{fill:#d3d3d3}.cls-58{fill:#d2d2d2}.cls-59{fill:#d2d2d1}.cls-60{fill:#d1d1d0}.cls-61{fill:#d0d0cf}.cls-62{fill:#cfcfcf}.cls-63{fill:#cecece}.cls-64{fill:#cdcdcd}.cls-65{fill:#ccc}.cls-66{fill:#cbcbcb}.cls-67{fill:#cacaca}.cls-68{fill:#c9c9c9}.cls-69{fill:#c9c9c8}.cls-70{fill:#c8c8c7}.cls-71{fill:#c7c7c6}.cls-72{fill:#c6c6c5}.cls-73{fill:#c5c5c4}.cls-74{fill:#c4c4c3}.cls-75{fill:#c3c3c2}.cls-76{fill:#c2c2c1}.cls-77{fill:#c1c1c0}.cls-78{fill:#c0c0bf}.cls-79{fill:#bfbfbe}.cls-80{fill:#bebebd}.cls-81{fill:#bdbdbc}.cls-82{fill:#bcbcbb}.cls-83{fill:#bbbbba}.cls-84{fill:#babab9}.cls-85{fill:#b9b9b8}.cls-86{fill:#b8b8b7}.cls-87{fill:#b7b7b6}.cls-88{fill:#b6b6b5}.cls-89{fill:#b5b5b4}.cls-90{fill:#b4b4b3}.cls-91{fill:#b3b3b2}.cls-92{fill:#b2b2b1}.cls-93{fill:#b1b1b0}.cls-94{fill:#b0b0af}.cls-95{fill:#afafae}.cls-96{fill:#aeaead}.cls-97{fill:#acacac}.cls-98{fill:#ababab}.cls-99{fill:#aaa}.cls-100{fill:#a9a9a8}.cls-101{fill:#a8a8a7}.cls-102{fill:#a7a7a6}.cls-103{fill:#a6a6a5}.cls-104{fill:#a5a5a4}.cls-105{fill:#a4a4a3}.cls-106{fill:#a3a3a2}.cls-107{fill:#a2a2a1}.cls-108{fill:#a0a0a0}.cls-109{fill:#9f9f9e}.cls-110{fill:#9e9e9d}.cls-111{fill:#9d9d9c}.cls-112{fill:#9c9c9b}.cls-113{fill:#9b9b9a}.cls-114{fill:#9a9a99}.cls-115{fill:#989898}.cls-116{fill:#979796}.cls-117{fill:#969695}.cls-118{fill:#959594}.cls-119{fill:#949493}.cls-120{fill:#939392}.cls-121{fill:#919190}.cls-122{fill:#90908f}.cls-123{fill:#8f8f8e}.cls-124{fill:#8e8e8d}.cls-125{fill:#8d8d8c}.cls-126{fill:#8b8b8a}.cls-127{fill:#8a8a89}.cls-128{fill:#898988}.cls-129{fill:#888887}.cls-130{fill:#878786}.cls-131{fill:#858584}.cls-132{fill:#848483}.cls-133{fill:#838382}.cls-134{fill:#828281}.cls-135{fill:#80807f}.cls-136{fill:#7f7f7e}.cls-137{fill:#7e7e7d}.cls-138{fill:#7d7d7c}.cls-139{fill:#7b7b7a}.cls-140{fill:#7a7a79}.cls-141{fill:#797978}.cls-142{fill:#787876}.cls-143{fill:#767675}.cls-144{fill:#757574}.cls-145{fill:#747473}.cls-146{fill:#737371}.cls-147{fill:#717170}.cls-148{fill:#70706f}.cls-149{fill:#6f6f6d}.cls-150{fill:#6d6d6c}.cls-151{fill:#6c6c6b}.cls-152{fill:#6b6b69}.cls-153{fill:#696968}.cls-154{fill:#686867}.cls-155{fill:#676765}.cls-156{fill:#666664}.cls-157{fill:#646463}.cls-158{fill:#636361}.cls-159{fill:#626260}.cls-160{fill:#60605f}.cls-161{fill:#5f5f5d}.cls-162{fill:#5d5d5c}.cls-163{fill:#5c5c5b}.cls-164{fill:#5b5b59}.cls-165{fill:#595958}.cls-166{fill:#585857}.cls-167{fill:#575755}.cls-168{fill:#555554}.cls-169{fill:#545452}.cls-170{fill:#535351}.cls-171{fill:#515150}.cls-172{fill:#50504e}.cls-173{fill:#4e4e4d}.cls-174{fill:#4d4d4b}.cls-175{fill:#4c4c4a}.cls-176{fill:#4a4a49}.cls-177{fill:#494947}.cls-178{fill:#474746}.cls-179{fill:#464644}.cls-180{fill:#454543}.cls-181{fill:#434341}.cls-182{fill:#424240}.cls-183{fill:#40403f}.cls-184{fill:#3f3f3d}.cls-185{fill:#3d3d3c}.cls-186{fill:#3c3c3a}.cls-187{fill:#3b3b39}.cls-188{fill:#393937}.cls-189{fill:#383836}.cls-190{fill:#363634}.cls-191{fill:#353533}.cls-192{fill:#333332}.cls-193{fill:#323230}.cls-194{fill:#30302f}.cls-195{fill:#2f2f2d}.cls-196{fill:#2d2d2c}.cls-197{fill:#2c2c2a}.cls-198{fill:#2a2a29}.cls-199{fill:#292927}.cls-200{fill:#282826}.cls-201{fill:#262624}.cls-202{fill:#252523}.cls-203{fill:#232321}.cls-204{fill:#222220}.cls-205{fill:#20201e}.cls-206{fill:#1f1f1d}.cls-207{fill:#1d1d1b}.cls-208{fill:#37aae1}.cls-209{fill:#a09f9f}.cls-210{fill:#1d80a8}.cls-211{fill:#eb5f3b}.cls-212{fill:#ff9045}</style><clipPath id="clip-path"><ellipse class="cls-1" cx="230.07" cy="261.63" rx="195.48" ry="34.05"/></clipPath></defs><title>bg-result-ic</title><g class="cls-2 cls-3"><path class="cls-4" d="M35 228h391v68H35z"/><ellipse class="cls-4" cx="230.07" cy="261.63" rx="140.62" ry="39.33"/><ellipse class="cls-4" cx="230.07" cy="261.63" rx="140" ry="39.15"/><ellipse class="cls-4" cx="230.07" cy="261.63" rx="139.38" ry="38.98"/><ellipse class="cls-4" cx="230.07" cy="261.63" rx="138.77" ry="38.81"/><ellipse class="cls-4" cx="230.07" cy="261.63" rx="138.15" ry="38.64"/><ellipse class="cls-5" cx="230.07" cy="261.63" rx="137.53" ry="38.46"/><ellipse class="cls-5" cx="230.07" cy="261.63" rx="136.92" ry="38.29"/><ellipse class="cls-5" cx="230.07" cy="261.63" rx="136.3" ry="38.12"/><ellipse class="cls-5" cx="230.07" cy="261.63" rx="135.68" ry="37.95"/><ellipse class="cls-6" cx="230.07" cy="261.63" rx="135.07" ry="37.77"/><ellipse class="cls-6" cx="230.07" cy="261.63" rx="134.45" ry="37.6"/><ellipse class="cls-6" cx="230.07" cy="261.63" rx="133.83" ry="37.43"/><ellipse class="cls-7" cx="230.07" cy="261.63" rx="133.22" ry="37.26"/><ellipse class="cls-7" cx="230.07" cy="261.63" rx="132.6" ry="37.08"/><ellipse class="cls-7" cx="230.07" cy="261.63" rx="131.98" ry="36.91"/><ellipse class="cls-8" cx="230.07" cy="261.63" rx="131.37" ry="36.74"/><ellipse class="cls-8" cx="230.07" cy="261.63" rx="130.75" ry="36.57"/><ellipse class="cls-8" cx="230.07" cy="261.63" rx="130.13" ry="36.39"/><ellipse class="cls-9" cx="230.07" cy="261.63" rx="129.52" ry="36.22"/><ellipse class="cls-9" cx="230.07" cy="261.63" rx="128.9" ry="36.05"/><ellipse class="cls-10" cx="230.07" cy="261.63" rx="128.28" ry="35.88"/><ellipse class="cls-10" cx="230.07" cy="261.63" rx="127.67" ry="35.7"/><ellipse class="cls-11" cx="230.07" cy="261.63" rx="127.05" ry="35.53"/><ellipse class="cls-11" cx="230.07" cy="261.63" rx="126.43" ry="35.36"/><ellipse class="cls-11" cx="230.07" cy="261.63" rx="125.82" ry="35.19"/><ellipse class="cls-12" cx="230.07" cy="261.63" rx="125.2" ry="35.02"/><ellipse class="cls-12" cx="230.07" cy="261.63" rx="124.58" ry="34.84"/><ellipse class="cls-13" cx="230.07" cy="261.63" rx="123.97" ry="34.67"/><ellipse class="cls-13" cx="230.07" cy="261.63" rx="123.35" ry="34.5"/><ellipse class="cls-14" cx="230.07" cy="261.63" rx="122.73" ry="34.33"/><ellipse class="cls-15" cx="230.07" cy="261.63" rx="122.12" ry="34.15"/><ellipse class="cls-16" cx="230.07" cy="261.63" rx="121.5" ry="33.98"/><ellipse class="cls-17" cx="230.07" cy="261.63" rx="120.88" ry="33.81"/><ellipse class="cls-18" cx="230.07" cy="261.63" rx="120.26" ry="33.64"/><ellipse class="cls-19" cx="230.07" cy="261.63" rx="119.65" ry="33.46"/><ellipse class="cls-19" cx="230.07" cy="261.63" rx="119.03" ry="33.29"/><ellipse class="cls-20" cx="230.07" cy="261.63" rx="118.41" ry="33.12"/><ellipse class="cls-20" cx="230.07" cy="261.63" rx="117.8" ry="32.95"/><ellipse class="cls-21" cx="230.07" cy="261.63" rx="117.18" ry="32.77"/><ellipse class="cls-22" cx="230.07" cy="261.63" rx="116.56" ry="32.6"/><ellipse class="cls-22" cx="230.07" cy="261.63" rx="115.95" ry="32.43"/><ellipse class="cls-23" cx="230.07" cy="261.63" rx="115.33" ry="32.26"/><ellipse class="cls-24" cx="230.07" cy="261.63" rx="114.71" ry="32.08"/><ellipse class="cls-25" cx="230.07" cy="261.63" rx="114.1" ry="31.91"/><ellipse class="cls-26" cx="230.07" cy="261.63" rx="113.48" ry="31.74"/><ellipse class="cls-26" cx="230.07" cy="261.63" rx="112.86" ry="31.57"/><ellipse class="cls-27" cx="230.07" cy="261.63" rx="112.25" ry="31.39"/><ellipse class="cls-28" cx="230.07" cy="261.63" rx="111.63" ry="31.22"/><ellipse class="cls-28" cx="230.07" cy="261.63" rx="111.01" ry="31.05"/><ellipse class="cls-29" cx="230.07" cy="261.63" rx="110.4" ry="30.88"/><ellipse class="cls-30" cx="230.07" cy="261.63" rx="109.78" ry="30.7"/><ellipse class="cls-31" cx="230.07" cy="261.63" rx="109.16" ry="30.53"/><ellipse class="cls-32" cx="230.07" cy="261.63" rx="108.55" ry="30.36"/><ellipse class="cls-33" cx="230.07" cy="261.63" rx="107.93" ry="30.19"/><ellipse class="cls-34" cx="230.07" cy="261.63" rx="107.31" ry="30.01"/><ellipse class="cls-35" cx="230.07" cy="261.63" rx="106.7" ry="29.84"/><ellipse class="cls-36" cx="230.07" cy="261.63" rx="106.08" ry="29.67"/><ellipse class="cls-37" cx="230.07" cy="261.63" rx="105.46" ry="29.5"/><ellipse class="cls-38" cx="230.07" cy="261.63" rx="104.85" ry="29.32"/><ellipse class="cls-39" cx="230.07" cy="261.63" rx="104.23" ry="29.15"/><ellipse class="cls-40" cx="230.07" cy="261.63" rx="103.61" ry="28.98"/><ellipse class="cls-41" cx="230.07" cy="261.63" rx="103" ry="28.81"/><ellipse class="cls-42" cx="230.07" cy="261.63" rx="102.38" ry="28.63"/><ellipse class="cls-43" cx="230.07" cy="261.63" rx="101.76" ry="28.46"/><ellipse class="cls-44" cx="230.07" cy="261.63" rx="101.15" ry="28.29"/><ellipse class="cls-45" cx="230.07" cy="261.63" rx="100.53" ry="28.12"/><ellipse class="cls-46" cx="230.07" cy="261.63" rx="99.91" ry="27.94"/><ellipse class="cls-47" cx="230.07" cy="261.63" rx="99.3" ry="27.77"/><ellipse class="cls-48" cx="230.07" cy="261.63" rx="98.68" ry="27.6"/><ellipse class="cls-49" cx="230.07" cy="261.63" rx="98.06" ry="27.43"/><ellipse class="cls-50" cx="230.07" cy="261.63" rx="97.45" ry="27.25"/><ellipse class="cls-51" cx="230.07" cy="261.63" rx="96.83" ry="27.08"/><ellipse class="cls-52" cx="230.07" cy="261.63" rx="96.21" ry="26.91"/><ellipse class="cls-53" cx="230.07" cy="261.63" rx="95.6" ry="26.74"/><ellipse class="cls-54" cx="230.07" cy="261.63" rx="94.98" ry="26.56"/><ellipse class="cls-55" cx="230.07" cy="261.63" rx="94.36" ry="26.39"/><ellipse class="cls-56" cx="230.07" cy="261.63" rx="93.74" ry="26.22"/><ellipse class="cls-57" cx="230.07" cy="261.63" rx="93.13" ry="26.05"/><ellipse class="cls-58" cx="230.07" cy="261.63" rx="92.51" ry="25.87"/><ellipse class="cls-59" cx="230.07" cy="261.63" rx="91.89" ry="25.7"/><ellipse class="cls-60" cx="230.07" cy="261.63" rx="91.28" ry="25.53"/><ellipse class="cls-61" cx="230.07" cy="261.63" rx="90.66" ry="25.36"/><ellipse class="cls-62" cx="230.07" cy="261.63" rx="90.04" ry="25.18"/><ellipse class="cls-63" cx="230.07" cy="261.63" rx="89.43" ry="25.01"/><ellipse class="cls-64" cx="230.07" cy="261.63" rx="88.81" ry="24.84"/><ellipse class="cls-65" cx="230.07" cy="261.63" rx="88.19" ry="24.67"/><ellipse class="cls-66" cx="230.07" cy="261.63" rx="87.58" ry="24.49"/><ellipse class="cls-67" cx="230.07" cy="261.63" rx="86.96" ry="24.32"/><ellipse class="cls-68" cx="230.07" cy="261.63" rx="86.34" ry="24.15"/><ellipse class="cls-69" cx="230.07" cy="261.63" rx="85.73" ry="23.98"/><ellipse class="cls-70" cx="230.07" cy="261.63" rx="85.11" ry="23.8"/><ellipse class="cls-71" cx="230.07" cy="261.63" rx="84.49" ry="23.63"/><ellipse class="cls-72" cx="230.07" cy="261.63" rx="83.88" ry="23.46"/><ellipse class="cls-73" cx="230.07" cy="261.63" rx="83.26" ry="23.29"/><ellipse class="cls-74" cx="230.07" cy="261.63" rx="82.64" ry="23.11"/><ellipse class="cls-75" cx="230.07" cy="261.63" rx="82.03" ry="22.94"/><ellipse class="cls-76" cx="230.07" cy="261.63" rx="81.41" ry="22.77"/><ellipse class="cls-77" cx="230.07" cy="261.63" rx="80.79" ry="22.6"/><ellipse class="cls-78" cx="230.07" cy="261.63" rx="80.18" ry="22.42"/><ellipse class="cls-79" cx="230.07" cy="261.63" rx="79.56" ry="22.25"/><ellipse class="cls-80" cx="230.07" cy="261.63" rx="78.94" ry="22.08"/><ellipse class="cls-81" cx="230.07" cy="261.63" rx="78.33" ry="21.91"/><ellipse class="cls-82" cx="230.07" cy="261.63" rx="77.71" ry="21.73"/><ellipse class="cls-83" cx="230.07" cy="261.63" rx="77.09" ry="21.56"/><ellipse class="cls-84" cx="230.07" cy="261.63" rx="76.48" ry="21.39"/><ellipse class="cls-85" cx="230.07" cy="261.63" rx="75.86" ry="21.22"/><ellipse class="cls-86" cx="230.07" cy="261.63" rx="75.24" ry="21.04"/><ellipse class="cls-87" cx="230.07" cy="261.63" rx="74.63" ry="20.87"/><ellipse class="cls-88" cx="230.07" cy="261.63" rx="74.01" ry="20.7"/><ellipse class="cls-89" cx="230.07" cy="261.63" rx="73.39" ry="20.53"/><ellipse class="cls-90" cx="230.07" cy="261.63" rx="72.78" ry="20.35"/><ellipse class="cls-91" cx="230.07" cy="261.63" rx="72.16" ry="20.18"/><ellipse class="cls-92" cx="230.07" cy="261.63" rx="71.54" ry="20.01"/><ellipse class="cls-93" cx="230.07" cy="261.63" rx="70.93" ry="19.84"/><ellipse class="cls-94" cx="230.07" cy="261.63" rx="70.31" ry="19.66"/><ellipse class="cls-95" cx="230.07" cy="261.63" rx="69.69" ry="19.49"/><ellipse class="cls-96" cx="230.07" cy="261.63" rx="69.08" ry="19.32"/><ellipse class="cls-97" cx="230.07" cy="261.63" rx="68.46" ry="19.15"/><ellipse class="cls-98" cx="230.07" cy="261.63" rx="67.84" ry="18.97"/><ellipse class="cls-99" cx="230.07" cy="261.63" rx="67.22" ry="18.8"/><ellipse class="cls-100" cx="230.07" cy="261.63" rx="66.61" ry="18.63"/><ellipse class="cls-101" cx="230.07" cy="261.63" rx="65.99" ry="18.46"/><ellipse class="cls-102" cx="230.07" cy="261.63" rx="65.37" ry="18.28"/><ellipse class="cls-103" cx="230.07" cy="261.63" rx="64.76" ry="18.11"/><ellipse class="cls-104" cx="230.07" cy="261.63" rx="64.14" ry="17.94"/><ellipse class="cls-105" cx="230.07" cy="261.63" rx="63.52" ry="17.77"/><ellipse class="cls-106" cx="230.07" cy="261.63" rx="62.91" ry="17.59"/><ellipse class="cls-107" cx="230.07" cy="261.63" rx="62.29" ry="17.42"/><ellipse class="cls-108" cx="230.07" cy="261.63" rx="61.67" ry="17.25"/><ellipse class="cls-109" cx="230.07" cy="261.63" rx="61.06" ry="17.08"/><ellipse class="cls-110" cx="230.07" cy="261.63" rx="60.44" ry="16.9"/><ellipse class="cls-111" cx="230.07" cy="261.63" rx="59.82" ry="16.73"/><ellipse class="cls-112" cx="230.07" cy="261.63" rx="59.21" ry="16.56"/><ellipse class="cls-113" cx="230.07" cy="261.63" rx="58.59" ry="16.39"/><ellipse class="cls-114" cx="230.07" cy="261.63" rx="57.97" ry="16.21"/><ellipse class="cls-115" cx="230.07" cy="261.63" rx="57.36" ry="16.04"/><ellipse class="cls-116" cx="230.07" cy="261.63" rx="56.74" ry="15.87"/><ellipse class="cls-117" cx="230.07" cy="261.63" rx="56.12" ry="15.7"/><ellipse class="cls-118" cx="230.07" cy="261.63" rx="55.51" ry="15.52"/><ellipse class="cls-119" cx="230.07" cy="261.63" rx="54.89" ry="15.35"/><ellipse class="cls-120" cx="230.07" cy="261.63" rx="54.27" ry="15.18"/><ellipse class="cls-121" cx="230.07" cy="261.63" rx="53.66" ry="15.01"/><ellipse class="cls-122" cx="230.07" cy="261.63" rx="53.04" ry="14.83"/><ellipse class="cls-123" cx="230.07" cy="261.63" rx="52.42" ry="14.66"/><ellipse class="cls-124" cx="230.07" cy="261.63" rx="51.81" ry="14.49"/><ellipse class="cls-125" cx="230.07" cy="261.63" rx="51.19" ry="14.32"/><ellipse class="cls-126" cx="230.07" cy="261.63" rx="50.57" ry="14.14"/><ellipse class="cls-127" cx="230.07" cy="261.63" rx="49.96" ry="13.97"/><ellipse class="cls-128" cx="230.07" cy="261.63" rx="49.34" ry="13.8"/><ellipse class="cls-129" cx="230.07" cy="261.63" rx="48.72" ry="13.63"/><ellipse class="cls-130" cx="230.07" cy="261.63" rx="48.11" ry="13.45"/><ellipse class="cls-131" cx="230.07" cy="261.63" rx="47.49" ry="13.28"/><ellipse class="cls-132" cx="230.07" cy="261.63" rx="46.87" ry="13.11"/><ellipse class="cls-133" cx="230.07" cy="261.63" rx="46.26" ry="12.94"/><ellipse class="cls-134" cx="230.07" cy="261.63" rx="45.64" ry="12.76"/><ellipse class="cls-135" cx="230.07" cy="261.63" rx="45.02" ry="12.59"/><ellipse class="cls-136" cx="230.07" cy="261.63" rx="44.41" ry="12.42"/><ellipse class="cls-137" cx="230.07" cy="261.63" rx="43.79" ry="12.25"/><ellipse class="cls-138" cx="230.07" cy="261.63" rx="43.17" ry="12.07"/><ellipse class="cls-139" cx="230.07" cy="261.63" rx="42.56" ry="11.9"/><ellipse class="cls-140" cx="230.07" cy="261.63" rx="41.94" ry="11.73"/><ellipse class="cls-141" cx="230.07" cy="261.63" rx="41.32" ry="11.56"/><ellipse class="cls-142" cx="230.07" cy="261.63" rx="40.71" ry="11.38"/><ellipse class="cls-143" cx="230.07" cy="261.63" rx="40.09" ry="11.21"/><ellipse class="cls-144" cx="230.07" cy="261.63" rx="39.47" ry="11.04"/><ellipse class="cls-145" cx="230.07" cy="261.63" rx="38.85" ry="10.87"/><ellipse class="cls-146" cx="230.07" cy="261.63" rx="38.24" ry="10.69"/><ellipse class="cls-147" cx="230.07" cy="261.63" rx="37.62" ry="10.52"/><ellipse class="cls-148" cx="230.07" cy="261.63" rx="37" ry="10.35"/><ellipse class="cls-149" cx="230.07" cy="261.63" rx="36.39" ry="10.18"/><ellipse class="cls-150" cx="230.07" cy="261.63" rx="35.77" ry="10"/><ellipse class="cls-151" cx="230.07" cy="261.63" rx="35.15" ry="9.83"/><ellipse class="cls-152" cx="230.07" cy="261.63" rx="34.54" ry="9.66"/><ellipse class="cls-153" cx="230.07" cy="261.63" rx="33.92" ry="9.49"/><ellipse class="cls-154" cx="230.07" cy="261.63" rx="33.3" ry="9.31"/><ellipse class="cls-155" cx="230.07" cy="261.63" rx="32.69" ry="9.14"/><ellipse class="cls-156" cx="230.07" cy="261.63" rx="32.07" ry="8.97"/><ellipse class="cls-157" cx="230.07" cy="261.63" rx="31.45" ry="8.8"/><ellipse class="cls-158" cx="230.07" cy="261.63" rx="30.84" ry="8.62"/><ellipse class="cls-159" cx="230.07" cy="261.63" rx="30.22" ry="8.45"/><ellipse class="cls-160" cx="230.07" cy="261.63" rx="29.6" ry="8.28"/><ellipse class="cls-161" cx="230.07" cy="261.63" rx="28.99" ry="8.11"/><ellipse class="cls-162" cx="230.07" cy="261.63" rx="28.37" ry="7.93"/><ellipse class="cls-163" cx="230.07" cy="261.63" rx="27.75" ry="7.76"/><ellipse class="cls-164" cx="230.07" cy="261.63" rx="27.14" ry="7.59"/><ellipse class="cls-165" cx="230.07" cy="261.63" rx="26.52" ry="7.42"/><ellipse class="cls-166" cx="230.07" cy="261.63" rx="25.9" ry="7.24"/><ellipse class="cls-167" cx="230.07" cy="261.63" rx="25.29" ry="7.07"/><ellipse class="cls-168" cx="230.07" cy="261.63" rx="24.67" ry="6.9"/><ellipse class="cls-169" cx="230.07" cy="261.63" rx="24.05" ry="6.73"/><ellipse class="cls-170" cx="230.07" cy="261.63" rx="23.44" ry="6.55"/><ellipse class="cls-171" cx="230.07" cy="261.63" rx="22.82" ry="6.38"/><ellipse class="cls-172" cx="230.07" cy="261.63" rx="22.2" ry="6.21"/><ellipse class="cls-173" cx="230.07" cy="261.63" rx="21.59" ry="6.04"/><ellipse class="cls-174" cx="230.07" cy="261.63" rx="20.97" ry="5.86"/><ellipse class="cls-175" cx="230.07" cy="261.63" rx="20.35" ry="5.69"/><ellipse class="cls-176" cx="230.07" cy="261.63" rx="19.74" ry="5.52"/><ellipse class="cls-177" cx="230.07" cy="261.63" rx="19.12" ry="5.35"/><ellipse class="cls-178" cx="230.07" cy="261.63" rx="18.5" ry="5.17"/><ellipse class="cls-179" cx="230.07" cy="261.63" rx="17.89" ry="5"/><ellipse class="cls-180" cx="230.07" cy="261.63" rx="17.27" ry="4.83"/><ellipse class="cls-181" cx="230.07" cy="261.63" rx="16.65" ry="4.66"/><ellipse class="cls-182" cx="230.07" cy="261.63" rx="16.04" ry="4.48"/><ellipse class="cls-183" cx="230.07" cy="261.63" rx="15.42" ry="4.31"/><ellipse class="cls-184" cx="230.07" cy="261.63" rx="14.8" ry="4.14"/><ellipse class="cls-185" cx="230.07" cy="261.63" rx="14.19" ry="3.97"/><ellipse class="cls-186" cx="230.07" cy="261.63" rx="13.57" ry="3.79"/><ellipse class="cls-187" cx="230.07" cy="261.63" rx="12.95" ry="3.62"/><ellipse class="cls-188" cx="230.07" cy="261.63" rx="12.33" ry="3.45"/><ellipse class="cls-189" cx="230.07" cy="261.63" rx="11.72" ry="3.28"/><ellipse class="cls-190" cx="230.07" cy="261.63" rx="11.1" ry="3.1"/><ellipse class="cls-191" cx="230.07" cy="261.63" rx="10.48" ry="2.93"/><ellipse class="cls-192" cx="230.07" cy="261.63" rx="9.87" ry="2.76"/><ellipse class="cls-193" cx="230.07" cy="261.63" rx="9.25" ry="2.59"/><ellipse class="cls-194" cx="230.07" cy="261.63" rx="8.63" ry="2.41"/><ellipse class="cls-195" cx="230.07" cy="261.63" rx="8.02" ry="2.24"/><ellipse class="cls-196" cx="230.07" cy="261.63" rx="7.4" ry="2.07"/><ellipse class="cls-197" cx="230.07" cy="261.63" rx="6.78" ry="1.9"/><ellipse class="cls-198" cx="230.07" cy="261.63" rx="6.17" ry="1.72"/><ellipse class="cls-199" cx="230.07" cy="261.63" rx="5.55" ry="1.55"/><ellipse class="cls-200" cx="230.07" cy="261.63" rx="4.93" ry="1.38"/><ellipse class="cls-201" cx="230.07" cy="261.63" rx="4.32" ry="1.21"/><ellipse class="cls-202" cx="230.07" cy="261.63" rx="3.7" ry="1.03"/><ellipse class="cls-203" cx="230.07" cy="261.63" rx="3.08" ry=".86"/><ellipse class="cls-204" cx="230.07" cy="261.63" rx="2.47" ry=".69"/><ellipse class="cls-205" cx="230.07" cy="261.63" rx="1.85" ry=".52"/><ellipse class="cls-206" cx="230.07" cy="261.63" rx="1.23" ry=".34"/><ellipse class="cls-207" cx="230.07" cy="261.63" rx=".62" ry=".17"/></g><path class="cls-208" d="M314.82 85c21.59.1 32.42.14 38.65 6.57s5.89 14.57 5.64 23.29c0 1.72-.09 3.54-.1 5.46-.13 25.48 23.8 41.34 23.68 67.75a68.39 68.39 0 0 1-136.77-.68c.12-26 24.19-41.73 24.36-67.48 0-1.93 0-3.76-.05-5.49-.17-8.72-.32-16.95 5.87-23.23s17.13-6.29 38.72-6.19z"/><path class="cls-209" d="M273.69 70.63c0-3.38 3.42-6.09 7.58-6.07l69.24.34c4.18 0 7.55 2.78 7.53 6.14 0 3.38-3.42 6.1-7.59 6.07l-69.25-.34c-4.16 0-7.53-2.77-7.52-6.15zM273.77 54.06c0-3.38 3.42-6.1 7.58-6.08l69.25.35c4.18 0 7.54 2.78 7.53 6.15 0 3.38-3.42 6.1-7.59 6.07l-69.25-.35c-4.16 0-7.54-2.77-7.52-6.14zM273.84 37.48c0-3.37 3.42-6.09 7.58-6.07l69.25.35c4.18 0 7.54 2.77 7.53 6.15 0 3.37-3.42 6.09-7.59 6.07l-69.24-.34c-4.18 0-7.55-2.79-7.53-6.16zM292.18 21c0-2.82 2.84-5.08 6.32-5.06l35.23.17c3.48 0 6.3 2.3 6.28 5.12 0 2.8-2.84 5.07-6.32 5.05l-35.25-.18c-3.47 0-6.28-2.31-6.27-5.11z"/><path class="cls-210" d="M343.29 218.94a46.49 46.49 0 0 1-21.81 6.15c-21.22.06-35.39-12.47-39.46-30.75h-9.63v-7.56h8.41c0-1.34-.13-2.68-.13-4.14s.11-2.93.11-4.27h-8.41v-7.44H282c4.1-18.3 18.09-31 39.3-31.07a46.48 46.48 0 0 1 21.84 6v15.24a34 34 0 0 0-19.89-6.9c-11.34 0-19.13 6.51-22.39 16.64l28-.07v7.44l-29.75.08c-.12 1.34-.11 2.8-.11 4.27s0 2.8.13 4.14l29.75-.08v7.56l-28 .07c3.32 10 11.14 16.55 22.48 16.52a33.22 33.22 0 0 0 19.86-7.12z"/><ellipse class="cls-211" cx="258.03" cy="266.02" rx="28.67" ry="7.17" transform="rotate(-.15 255.576 263.895)"/><path class="cls-211" transform="rotate(-.15 255.581 260.076)" d="M229.34 254.32h57.34v12.85h-57.34z"/><ellipse class="cls-212" cx="258" cy="254.7" rx="28.67" ry="7.17" transform="rotate(-.15 255.591 252.436)"/><ellipse class="cls-211" cx="263.65" cy="251.29" rx="28.67" ry="7.17" transform="rotate(-.15 263.235 248.627)"/><path class="cls-211" transform="rotate(-.15 263.24 244.807)" d="M234.96 239.6h57.34v12.85h-57.34z"/><ellipse class="cls-212" cx="263.62" cy="239.98" rx="28.67" ry="7.17" transform="rotate(-.15 263.25 237.167)"/><ellipse class="cls-211" cx="250.03" cy="236.62" rx="28.67" ry="7.17" transform="rotate(-.15 247.977 233.328)"/><path class="cls-211" transform="rotate(-.15 247.982 229.508)" d="M221.35 224.92h57.34v12.85h-57.34z"/><ellipse class="cls-212" cx="250" cy="225.3" rx="28.67" ry="7.17" transform="rotate(-.15 247.987 225.688)"/><ellipse class="cls-211" cx="384.62" cy="254.86" rx="28.67" ry="7.17" transform="rotate(-.15 381.642 252.601)"/><path class="cls-211" transform="rotate(-.15 381.647 248.782)" d="M355.94 243.16h57.34v12.85h-57.34z"/><ellipse class="cls-212" cx="384.59" cy="243.54" rx="28.67" ry="7.17" transform="rotate(-.15 381.657 241.142)"/><ellipse class="cls-211" cx="390.88" cy="240.67" rx="28.67" ry="7.17" transform="rotate(-.15 389.296 241.152)"/><path class="cls-211" transform="rotate(-.15 389.306 233.513)" d="M362.2 228.98h57.34v12.85H362.2z"/><ellipse class="cls-212" cx="390.85" cy="229.36" rx="28.67" ry="7.17" transform="rotate(-.15 389.311 229.693)"/><ellipse class="cls-211" cx="390.84" cy="226.51" rx="28.67" ry="7.17" transform="rotate(-.15 389.316 225.873)"/><path class="cls-211" transform="rotate(-.15 389.326 218.234)" d="M362.16 214.81h57.34v12.85h-57.34z"/><ellipse class="cls-212" cx="390.81" cy="215.19" rx="28.67" ry="7.17" transform="rotate(-.15 389.331 214.414)"/><ellipse class="cls-211" cx="384.51" cy="212.36" rx="28.67" ry="7.17" transform="rotate(-.15 381.697 210.584)"/><path class="cls-211" transform="rotate(-.15 381.702 206.765)" d="M355.83 200.66h57.34v12.85h-57.34z"/><ellipse class="cls-212" cx="384.48" cy="201.04" rx="28.67" ry="7.17" transform="rotate(-.15 381.712 199.125)"/><ellipse class="cls-211" cx="342.37" cy="268.26" rx="28.67" ry="7.17" transform="rotate(-.15 339.605 267.825)"/><path class="cls-211" transform="rotate(-.15 339.615 260.186)" d="M313.68 256.56h57.34v12.85h-57.34z"/><ellipse class="cls-212" cx="342.34" cy="256.94" rx="28.67" ry="7.17" transform="rotate(-.15 339.62 256.366)"/><ellipse class="cls-211" cx="350.26" cy="255.79" rx="28.67" ry="7.17" transform="rotate(-.15 347.264 252.556)"/><path class="cls-211" transform="rotate(-.15 347.27 248.737)" d="M321.57 244.09h57.34v12.85h-57.34z"/><ellipse class="cls-212" cx="350.23" cy="244.47" rx="28.67" ry="7.17" transform="rotate(-.15 347.274 244.917)"/></svg>