<svg id="Laag_1" xmlns="http://www.w3.org/2000/svg" viewBox="0 0 606 523"><style>.st0{fill:#fff}.st1{fill:#3aa9e0}.st2{fill:#2181a9}.st3{fill:#f78f49}.st4{fill:#f16039}.st5{fill:#d7b39d}.st6{fill:#fad2b6}</style><title>bg-result-telephone</title><g id="UzJRxm.tif"><path class="st0" d="M521 227.4c-2.9-29.8-6.3-59.5-9.4-89.3-1.6-14.4-3-28.8-4.5-43.8l-50.7-48.6c.1 4.3-2.2 3.9-4.9 4.2-13.6 1.5-27.1 2.9-40.6 4.6-19.4 2.3-24.4 8.9-22.4 28.1 5.6 52.2 11.2 104.4 16.7 156.6 1.6 15.8 8.2 21.9 23.6 20.6 24.5-2.1 49-4.6 73.4-7.5 14.6-1.7 20.3-9.3 18.8-24.9z"/><path class="st1" d="M520.8 227.4c-2.9-29.8-6.3-59.5-9.4-89.3-1.6-14.4-3-28.8-4.5-43.8 0 0-3.4-27.6-4-36.7-1-13.9-18-10.9-18-10.9l-33.6 3.2c-13.6 1.5-27.1 2.9-40.6 4.6-19.4 2.3-24.4 8.9-22.4 28.1 5.6 52.2 11.2 104.4 16.7 156.6 1.6 15.8 8.2 21.9 23.6 20.6 24.5-2.1 49-4.6 73.4-7.5 14.6-1.7 20.4-9.3 18.8-24.9z"/><path class="st0" d="M491.2 219.8l-55.1 6c-9.3 1-17.5-5.8-18.6-15L404.3 89.1c-1-9.3 5.8-17.5 15-18.5l55.1-6c9.3-.9 17.5 5.8 18.5 15l13.2 121.6c1 9.3-5.7 17.6-14.9 18.6z"/><path class="st2" d="M465.6 249.3c-5.4 0-8.9-3.7-9.1-9-.2-5.8 3.5-9.6 9.2-9.7 4-.3 7.7 2.3 8.9 6.1.8 2.2.8 4.5 0 6.7-1.4 3.7-4.5 5.9-9 5.9z"/><path class="st3" d="M606 56.1c-2.2 27.3-39.1 46.5-82.3 42.9-10.1-.8-20.2-2.9-29.8-6.2l-26.7 12.3-.7-27.5c-11.5-9.7-17.9-21.8-16.9-34.3C451.8 16 488.7-3.2 531.9.4s76.3 28.5 74.1 55.7z"/><path class="st0" d="M528.2 85.1l-11.6-1.9 8-48.3 11.6 2.1-8 48.1zM536.9 33.2l-11.6-1.9 2.1-13L539 20l-2.1 13.2z"/></g><path class="st0" d="M520.5 239.4l-95.2 3.9c-1.7 0-3-1.3-3.1-3-.1-1.6 1.1-3 2.8-3.2l95.2-3.9c1.7 0 3 1.3 3.1 3 0 1.7-1.2 3.1-2.8 3.2z"/><path class="st4" d="M347 305.2L37 523.3l167.4.1 198.1-139.3z"/><path class="st5" d="M406.2 374.6c-1.6.3-3.2.5-4.6.8s-3 .7-4.3 1.1L351.7 312l3.2-2.9 3.2-2.9 48.1 68.4z"/><path class="st6" d="M570.9 279.9c6.1-4.2 7.7-12.5 3.5-18.6 0 0 0-.1-.1-.1-4.4-6-12.8-7.3-18.8-3l-53.4 37.5c-.3.1-.6.2-.8.4.7-.6 5.2-4.2 9.4-7.6l54-38c6.2-4.3 7.7-12.9 3.3-19-4.3-6.2-12.9-7.7-19-3.3l-60.2 42.9c-1.4.5-2.9.9-4.3 1.2l74.7-52.5c6.2-4.3 7.7-12.9 3.3-19-4.3-6.2-12.9-7.7-19-3.3L472.2 248c-.6.3-1.3.5-2 .6.4-.5 1.2-1.4 2.1-2.5l.6-.4 69.7-50.1c6.2-4.3 7.7-12.9 3.3-19-4.3-6.2-12.9-7.7-19-3.3l-63.5 45.1c-.4.3-.8.6-1.1 1l-7.8 5.6-31.9 22.5c-7.4 3.4-16.1.3-18.5-5.5l-3.2-44.2c-5.6 3.9-10.9 8.2-15.8 12.9-9.8 9-16.3 21.7-24.1 45.7s.2 47.2.2 47.2l-3 2.7 48 68.2c10.5-.8 24.1-.9 30.4-2.3 1.2-.3 2.6-.2 3.8-.9 1.3-.2 2.3-1.2 3.4-2.1l58.6-41.2c.8-.6 1.8-1.2 2.6-1.8l23.2-16.4c.5-.3 1-.7 1.4-1.2l41.3-28.7z"/><path class="st5" d="M400.9 198l3.1 40.6.1 3.6-9-40.1z"/><path class="st6" d="M473.1 244.8s-4.2 5.2 1 1.4c4.9-3.6 4.3 6.1 4.3 6.1l-3.6 3.7-5.8 1.3s-3.8-1.6-4.1-3.3c-.4-2-.7-4-.9-6.1 0-1-.6-2.5.6-3.2.9-.6 1.9-1 3-1 1.9.3 3.7.6 5.5 1.1z"/></svg>