<svg id="Laag_1" data-name="Laag 1" xmlns="http://www.w3.org/2000/svg" viewBox="0 0 390 306.84"><defs><style>.cls-1{fill:none}.cls-2{opacity:.21}.cls-3{clip-path:url(#clip-path)}.cls-4{fill:#fff}.cls-5{fill:#fefefe}.cls-6{fill:#fdfdfd}.cls-7{fill:#fcfcfc}.cls-8{fill:#fbfbfb}.cls-9{fill:#fafafa}.cls-10{fill:#f9f9f9}.cls-11{fill:#f8f8f8}.cls-12{fill:#f7f7f7}.cls-13{fill:#f6f6f6}.cls-14{fill:#f5f5f5}.cls-15{fill:#f5f5f4}.cls-16{fill:#f4f4f4}.cls-17{fill:#f4f4f3}.cls-18{fill:#f3f3f3}.cls-19{fill:#f2f2f2}.cls-20{fill:#f1f1f1}.cls-21{fill:#f0f0f0}.cls-22{fill:#efefef}.cls-23{fill:#eee}.cls-24{fill:#eeeeed}.cls-25{fill:#ededed}.cls-26{fill:#ececec}.cls-27{fill:#ebebeb}.cls-28{fill:#eaeaea}.cls-29{fill:#e9e9e9}.cls-30{fill:#e8e8e8}.cls-31{fill:#e8e8e7}.cls-32{fill:#e7e7e7}.cls-33{fill:#e6e6e6}.cls-34{fill:#e6e6e5}.cls-35{fill:#e5e5e5}.cls-36{fill:#e4e4e4}.cls-37{fill:#e3e3e3}.cls-38{fill:#e3e3e2}.cls-39{fill:#e2e2e2}.cls-40{fill:#e1e1e1}.cls-41{fill:#e0e0e0}.cls-42{fill:#e0e0df}.cls-43{fill:#dfdfdf}.cls-44{fill:#dedede}.cls-45{fill:#ddd}.cls-46{fill:#dcdcdc}.cls-47{fill:#dcdcdb}.cls-48{fill:#dbdbdb}.cls-49{fill:#dadada}.cls-50{fill:#d9d9d9}.cls-51{fill:#d8d8d8}.cls-52{fill:#d8d8d7}.cls-53{fill:#d7d7d6}.cls-54{fill:#d6d6d6}.cls-55{fill:#d5d5d5}.cls-56{fill:#d4d4d4}.cls-57{fill:#d3d3d3}.cls-58{fill:#d2d2d2}.cls-59{fill:#d2d2d1}.cls-60{fill:#d1d1d0}.cls-61{fill:#d0d0cf}.cls-62{fill:#cfcfcf}.cls-63{fill:#cecece}.cls-64{fill:#cdcdcd}.cls-65{fill:#ccc}.cls-66{fill:#cbcbcb}.cls-67{fill:#cacaca}.cls-68{fill:#c9c9c9}.cls-69{fill:#c9c9c8}.cls-70{fill:#c8c8c7}.cls-71{fill:#c7c7c6}.cls-72{fill:#c6c6c5}.cls-73{fill:#c5c5c4}.cls-74{fill:#c4c4c3}.cls-75{fill:#c3c3c2}.cls-76{fill:#c2c2c1}.cls-77{fill:#c1c1c0}.cls-78{fill:#c0c0bf}.cls-79{fill:#bfbfbe}.cls-80{fill:#bebebd}.cls-81{fill:#bdbdbc}.cls-82{fill:#bcbcbb}.cls-83{fill:#bbbbba}.cls-84{fill:#babab9}.cls-85{fill:#b9b9b8}.cls-86{fill:#b8b8b7}.cls-87{fill:#b7b7b6}.cls-88{fill:#b6b6b5}.cls-89{fill:#b5b5b4}.cls-90{fill:#b4b4b3}.cls-91{fill:#b3b3b2}.cls-92{fill:#b2b2b1}.cls-93{fill:#b1b1b0}.cls-94{fill:#b0b0af}.cls-95{fill:#afafae}.cls-96{fill:#aeaead}.cls-97{fill:#acacac}.cls-98{fill:#ababab}.cls-99{fill:#aaa}.cls-100{fill:#a9a9a8}.cls-101{fill:#a8a8a7}.cls-102{fill:#a7a7a6}.cls-103{fill:#a6a6a5}.cls-104{fill:#a5a5a4}.cls-105{fill:#a4a4a3}.cls-106{fill:#a3a3a2}.cls-107{fill:#a2a2a1}.cls-108{fill:#a0a0a0}.cls-109{fill:#9f9f9e}.cls-110{fill:#9e9e9d}.cls-111{fill:#9d9d9c}.cls-112{fill:#9c9c9b}.cls-113{fill:#9b9b9a}.cls-114{fill:#9a9a99}.cls-115{fill:#989898}.cls-116{fill:#979796}.cls-117{fill:#969695}.cls-118{fill:#959594}.cls-119{fill:#949493}.cls-120{fill:#939392}.cls-121{fill:#919190}.cls-122{fill:#90908f}.cls-123{fill:#8f8f8e}.cls-124{fill:#8e8e8d}.cls-125{fill:#8d8d8c}.cls-126{fill:#8b8b8a}.cls-127{fill:#8a8a89}.cls-128{fill:#898988}.cls-129{fill:#888887}.cls-130{fill:#878786}.cls-131{fill:#858584}.cls-132{fill:#848483}.cls-133{fill:#838382}.cls-134{fill:#828281}.cls-135{fill:#80807f}.cls-136{fill:#7f7f7e}.cls-137{fill:#7e7e7d}.cls-138{fill:#7d7d7c}.cls-139{fill:#7b7b7a}.cls-140{fill:#7a7a79}.cls-141{fill:#797978}.cls-142{fill:#787876}.cls-143{fill:#767675}.cls-144{fill:#757574}.cls-145{fill:#747473}.cls-146{fill:#737371}.cls-147{fill:#717170}.cls-148{fill:#70706f}.cls-149{fill:#6f6f6d}.cls-150{fill:#6d6d6c}.cls-151{fill:#6c6c6b}.cls-152{fill:#6b6b69}.cls-153{fill:#696968}.cls-154{fill:#686867}.cls-155{fill:#676765}.cls-156{fill:#666664}.cls-157{fill:#646463}.cls-158{fill:#636361}.cls-159{fill:#626260}.cls-160{fill:#60605f}.cls-161{fill:#5f5f5d}.cls-162{fill:#5d5d5c}.cls-163{fill:#5c5c5b}.cls-164{fill:#5b5b59}.cls-165{fill:#595958}.cls-166{fill:#585857}.cls-167{fill:#575755}.cls-168{fill:#555554}.cls-169{fill:#545452}.cls-170{fill:#535351}.cls-171{fill:#515150}.cls-172{fill:#50504e}.cls-173{fill:#4e4e4d}.cls-174{fill:#4d4d4b}.cls-175{fill:#4c4c4a}.cls-176{fill:#4a4a49}.cls-177{fill:#494947}.cls-178{fill:#474746}.cls-179{fill:#464644}.cls-180{fill:#454543}.cls-181{fill:#434341}.cls-182{fill:#424240}.cls-183{fill:#40403f}.cls-184{fill:#3f3f3d}.cls-185{fill:#3d3d3c}.cls-186{fill:#3c3c3a}.cls-187{fill:#3b3b39}.cls-188{fill:#393937}.cls-189{fill:#383836}.cls-190{fill:#363634}.cls-191{fill:#353533}.cls-192{fill:#333332}.cls-193{fill:#323230}.cls-194{fill:#30302f}.cls-195{fill:#2f2f2d}.cls-196{fill:#2d2d2c}.cls-197{fill:#2c2c2a}.cls-198{fill:#2a2a29}.cls-199{fill:#292927}.cls-200{fill:#282826}.cls-201{fill:#262624}.cls-202{fill:#252523}.cls-203{fill:#232321}.cls-204{fill:#222220}.cls-205{fill:#20201e}.cls-206{fill:#1f1f1d}.cls-207{fill:#1d1d1b}.cls-208{fill:#39a9e1}.cls-209{fill:#37aae1}.cls-210{fill:#3ca8e0}.cls-211{fill:#eb5f3b}.cls-212{fill:#f18d4a}.cls-213{fill:#f60}.cls-214{fill:#ff9045}.cls-215{fill:#ffbb8d}.cls-216{fill:#a09f9f}</style><clipPath id="clip-path" transform="translate(-2313.31 -114.68)"><ellipse class="cls-1" cx="2507.9" cy="397.84" rx="194.95" ry="20.5"/></clipPath></defs><title>bg-result-sc</title><g class="cls-2 cls-3"><path class="cls-4" d="M0 262.53h390v41H0z"/><ellipse class="cls-4" cx="194.6" cy="283.16" rx="140.23" ry="23.68"/><ellipse class="cls-4" cx="194.6" cy="283.16" rx="139.62" ry="23.58"/><ellipse class="cls-4" cx="194.6" cy="283.16" rx="139" ry="23.47"/><ellipse class="cls-4" cx="194.6" cy="283.16" rx="138.39" ry="23.37"/><ellipse class="cls-4" cx="194.6" cy="283.16" rx="137.77" ry="23.26"/><ellipse class="cls-5" cx="194.6" cy="283.16" rx="137.16" ry="23.16"/><ellipse class="cls-5" cx="194.6" cy="283.16" rx="136.54" ry="23.06"/><ellipse class="cls-5" cx="194.6" cy="283.16" rx="135.93" ry="22.95"/><ellipse class="cls-5" cx="194.6" cy="283.16" rx="135.31" ry="22.85"/><ellipse class="cls-6" cx="194.6" cy="283.16" rx="134.7" ry="22.74"/><ellipse class="cls-6" cx="194.6" cy="283.16" rx="134.08" ry="22.64"/><ellipse class="cls-6" cx="194.6" cy="283.16" rx="133.47" ry="22.54"/><ellipse class="cls-7" cx="194.6" cy="283.16" rx="132.85" ry="22.43"/><ellipse class="cls-7" cx="194.6" cy="283.16" rx="132.24" ry="22.33"/><ellipse class="cls-7" cx="194.6" cy="283.16" rx="131.62" ry="22.23"/><ellipse class="cls-8" cx="194.6" cy="283.16" rx="131.01" ry="22.12"/><ellipse class="cls-8" cx="194.6" cy="283.16" rx="130.39" ry="22.02"/><ellipse class="cls-8" cx="194.6" cy="283.16" rx="129.78" ry="21.91"/><ellipse class="cls-9" cx="194.6" cy="283.16" rx="129.16" ry="21.81"/><ellipse class="cls-9" cx="194.6" cy="283.16" rx="128.55" ry="21.71"/><ellipse class="cls-10" cx="194.6" cy="283.16" rx="127.93" ry="21.6"/><ellipse class="cls-10" cx="194.6" cy="283.16" rx="127.32" ry="21.5"/><ellipse class="cls-11" cx="194.6" cy="283.16" rx="126.7" ry="21.39"/><ellipse class="cls-11" cx="194.6" cy="283.16" rx="126.09" ry="21.29"/><ellipse class="cls-11" cx="194.6" cy="283.16" rx="125.47" ry="21.19"/><ellipse class="cls-12" cx="194.6" cy="283.16" rx="124.86" ry="21.08"/><ellipse class="cls-12" cx="194.6" cy="283.16" rx="124.24" ry="20.98"/><ellipse class="cls-13" cx="194.6" cy="283.16" rx="123.63" ry="20.88"/><ellipse class="cls-13" cx="194.6" cy="283.16" rx="123.01" ry="20.77"/><ellipse class="cls-14" cx="194.6" cy="283.16" rx="122.4" ry="20.67"/><ellipse class="cls-15" cx="194.6" cy="283.16" rx="121.78" ry="20.56"/><ellipse class="cls-16" cx="194.6" cy="283.16" rx="121.17" ry="20.46"/><ellipse class="cls-17" cx="194.6" cy="283.16" rx="120.55" ry="20.36"/><ellipse class="cls-18" cx="194.6" cy="283.16" rx="119.94" ry="20.25"/><ellipse class="cls-19" cx="194.6" cy="283.16" rx="119.32" ry="20.15"/><ellipse class="cls-19" cx="194.6" cy="283.16" rx="118.71" ry="20.04"/><ellipse class="cls-20" cx="194.6" cy="283.16" rx="118.09" ry="19.94"/><ellipse class="cls-20" cx="194.6" cy="283.16" rx="117.48" ry="19.84"/><ellipse class="cls-21" cx="194.6" cy="283.16" rx="116.86" ry="19.73"/><ellipse class="cls-22" cx="194.6" cy="283.16" rx="116.25" ry="19.63"/><ellipse class="cls-22" cx="194.6" cy="283.16" rx="115.63" ry="19.53"/><ellipse class="cls-23" cx="194.6" cy="283.16" rx="115.02" ry="19.42"/><ellipse class="cls-24" cx="194.6" cy="283.16" rx="114.4" ry="19.32"/><ellipse class="cls-25" cx="194.6" cy="283.16" rx="113.79" ry="19.21"/><ellipse class="cls-26" cx="194.6" cy="283.16" rx="113.17" ry="19.11"/><ellipse class="cls-26" cx="194.6" cy="283.16" rx="112.56" ry="19.01"/><ellipse class="cls-27" cx="194.6" cy="283.16" rx="111.94" ry="18.9"/><ellipse class="cls-28" cx="194.6" cy="283.16" rx="111.33" ry="18.8"/><ellipse class="cls-28" cx="194.6" cy="283.16" rx="110.71" ry="18.69"/><ellipse class="cls-29" cx="194.6" cy="283.16" rx="110.1" ry="18.59"/><ellipse class="cls-30" cx="194.6" cy="283.16" rx="109.48" ry="18.49"/><ellipse class="cls-31" cx="194.6" cy="283.16" rx="108.86" ry="18.38"/><ellipse class="cls-32" cx="194.6" cy="283.16" rx="108.25" ry="18.28"/><ellipse class="cls-33" cx="194.6" cy="283.16" rx="107.63" ry="18.17"/><ellipse class="cls-34" cx="194.6" cy="283.16" rx="107.02" ry="18.07"/><ellipse class="cls-35" cx="194.6" cy="283.16" rx="106.4" ry="17.97"/><ellipse class="cls-36" cx="194.6" cy="283.16" rx="105.79" ry="17.86"/><ellipse class="cls-37" cx="194.6" cy="283.16" rx="105.17" ry="17.76"/><ellipse class="cls-38" cx="194.6" cy="283.16" rx="104.56" ry="17.66"/><ellipse class="cls-39" cx="194.6" cy="283.16" rx="103.94" ry="17.55"/><ellipse class="cls-40" cx="194.6" cy="283.16" rx="103.33" ry="17.45"/><ellipse class="cls-41" cx="194.6" cy="283.16" rx="102.71" ry="17.34"/><ellipse class="cls-42" cx="194.6" cy="283.16" rx="102.1" ry="17.24"/><ellipse class="cls-43" cx="194.6" cy="283.16" rx="101.48" ry="17.14"/><ellipse class="cls-44" cx="194.6" cy="283.16" rx="100.87" ry="17.03"/><ellipse class="cls-45" cx="194.6" cy="283.16" rx="100.25" ry="16.93"/><ellipse class="cls-46" cx="194.6" cy="283.16" rx="99.64" ry="16.82"/><ellipse class="cls-47" cx="194.6" cy="283.16" rx="99.02" ry="16.72"/><ellipse class="cls-48" cx="194.6" cy="283.16" rx="98.41" ry="16.62"/><ellipse class="cls-49" cx="194.6" cy="283.16" rx="97.79" ry="16.51"/><ellipse class="cls-50" cx="194.6" cy="283.16" rx="97.18" ry="16.41"/><ellipse class="cls-51" cx="194.6" cy="283.16" rx="96.56" ry="16.31"/><ellipse class="cls-52" cx="194.6" cy="283.16" rx="95.95" ry="16.2"/><ellipse class="cls-53" cx="194.6" cy="283.16" rx="95.33" ry="16.1"/><ellipse class="cls-54" cx="194.6" cy="283.16" rx="94.72" ry="15.99"/><ellipse class="cls-55" cx="194.6" cy="283.16" rx="94.1" ry="15.89"/><ellipse class="cls-56" cx="194.6" cy="283.16" rx="93.49" ry="15.79"/><ellipse class="cls-57" cx="194.6" cy="283.16" rx="92.87" ry="15.68"/><ellipse class="cls-58" cx="194.6" cy="283.16" rx="92.26" ry="15.58"/><ellipse class="cls-59" cx="194.6" cy="283.16" rx="91.64" ry="15.47"/><ellipse class="cls-60" cx="194.6" cy="283.16" rx="91.03" ry="15.37"/><ellipse class="cls-61" cx="194.6" cy="283.16" rx="90.41" ry="15.27"/><ellipse class="cls-62" cx="194.6" cy="283.16" rx="89.8" ry="15.16"/><ellipse class="cls-63" cx="194.6" cy="283.16" rx="89.18" ry="15.06"/><ellipse class="cls-64" cx="194.6" cy="283.16" rx="88.57" ry="14.96"/><ellipse class="cls-65" cx="194.6" cy="283.16" rx="87.95" ry="14.85"/><ellipse class="cls-66" cx="194.6" cy="283.16" rx="87.34" ry="14.75"/><ellipse class="cls-67" cx="194.6" cy="283.16" rx="86.72" ry="14.64"/><ellipse class="cls-68" cx="194.6" cy="283.16" rx="86.11" ry="14.54"/><ellipse class="cls-69" cx="194.6" cy="283.16" rx="85.49" ry="14.44"/><ellipse class="cls-70" cx="194.6" cy="283.16" rx="84.88" ry="14.33"/><ellipse class="cls-71" cx="194.6" cy="283.16" rx="84.26" ry="14.23"/><ellipse class="cls-72" cx="194.6" cy="283.16" rx="83.65" ry="14.12"/><ellipse class="cls-73" cx="194.6" cy="283.16" rx="83.03" ry="14.02"/><ellipse class="cls-74" cx="194.6" cy="283.16" rx="82.42" ry="13.92"/><ellipse class="cls-75" cx="194.6" cy="283.16" rx="81.8" ry="13.81"/><ellipse class="cls-76" cx="194.6" cy="283.16" rx="81.19" ry="13.71"/><ellipse class="cls-77" cx="194.6" cy="283.16" rx="80.57" ry="13.61"/><ellipse class="cls-78" cx="194.6" cy="283.16" rx="79.96" ry="13.5"/><ellipse class="cls-79" cx="194.6" cy="283.16" rx="79.34" ry="13.4"/><ellipse class="cls-80" cx="194.6" cy="283.16" rx="78.73" ry="13.29"/><ellipse class="cls-81" cx="194.6" cy="283.16" rx="78.11" ry="13.19"/><ellipse class="cls-82" cx="194.6" cy="283.16" rx="77.5" ry="13.09"/><ellipse class="cls-83" cx="194.6" cy="283.16" rx="76.88" ry="12.98"/><ellipse class="cls-84" cx="194.6" cy="283.16" rx="76.27" ry="12.88"/><ellipse class="cls-85" cx="194.6" cy="283.16" rx="75.65" ry="12.77"/><ellipse class="cls-86" cx="194.6" cy="283.16" rx="75.04" ry="12.67"/><ellipse class="cls-87" cx="194.6" cy="283.16" rx="74.42" ry="12.57"/><ellipse class="cls-88" cx="194.6" cy="283.16" rx="73.81" ry="12.46"/><ellipse class="cls-89" cx="194.6" cy="283.16" rx="73.19" ry="12.36"/><ellipse class="cls-90" cx="194.6" cy="283.16" rx="72.58" ry="12.26"/><ellipse class="cls-91" cx="194.6" cy="283.16" rx="71.96" ry="12.15"/><ellipse class="cls-92" cx="194.6" cy="283.16" rx="71.35" ry="12.05"/><ellipse class="cls-93" cx="194.6" cy="283.16" rx="70.73" ry="11.94"/><ellipse class="cls-94" cx="194.6" cy="283.16" rx="70.12" ry="11.84"/><ellipse class="cls-95" cx="194.6" cy="283.16" rx="69.5" ry="11.74"/><ellipse class="cls-96" cx="194.6" cy="283.16" rx="68.89" ry="11.63"/><ellipse class="cls-97" cx="194.6" cy="283.16" rx="68.27" ry="11.53"/><ellipse class="cls-98" cx="194.6" cy="283.16" rx="67.66" ry="11.42"/><ellipse class="cls-99" cx="194.6" cy="283.16" rx="67.04" ry="11.32"/><ellipse class="cls-100" cx="194.6" cy="283.16" rx="66.43" ry="11.22"/><ellipse class="cls-101" cx="194.6" cy="283.16" rx="65.81" ry="11.11"/><ellipse class="cls-102" cx="194.6" cy="283.16" rx="65.2" ry="11.01"/><ellipse class="cls-103" cx="194.6" cy="283.16" rx="64.58" ry="10.9"/><ellipse class="cls-104" cx="194.6" cy="283.16" rx="63.97" ry="10.8"/><ellipse class="cls-105" cx="194.6" cy="283.16" rx="63.35" ry="10.7"/><ellipse class="cls-106" cx="194.6" cy="283.16" rx="62.74" ry="10.59"/><ellipse class="cls-107" cx="194.6" cy="283.16" rx="62.12" ry="10.49"/><ellipse class="cls-108" cx="194.6" cy="283.16" rx="61.51" ry="10.39"/><ellipse class="cls-109" cx="194.6" cy="283.16" rx="60.89" ry="10.28"/><ellipse class="cls-110" cx="194.6" cy="283.16" rx="60.28" ry="10.18"/><ellipse class="cls-111" cx="194.6" cy="283.16" rx="59.66" ry="10.07"/><ellipse class="cls-112" cx="194.6" cy="283.16" rx="59.05" ry="9.97"/><ellipse class="cls-113" cx="194.6" cy="283.16" rx="58.43" ry="9.87"/><ellipse class="cls-114" cx="194.6" cy="283.16" rx="57.82" ry="9.76"/><ellipse class="cls-115" cx="194.6" cy="283.16" rx="57.2" ry="9.66"/><ellipse class="cls-116" cx="194.6" cy="283.16" rx="56.59" ry="9.55"/><ellipse class="cls-117" cx="194.6" cy="283.16" rx="55.97" ry="9.45"/><ellipse class="cls-118" cx="194.6" cy="283.16" rx="55.36" ry="9.35"/><ellipse class="cls-119" cx="194.6" cy="283.16" rx="54.74" ry="9.24"/><ellipse class="cls-120" cx="194.6" cy="283.16" rx="54.12" ry="9.14"/><ellipse class="cls-121" cx="194.6" cy="283.16" rx="53.51" ry="9.04"/><ellipse class="cls-122" cx="194.6" cy="283.16" rx="52.89" ry="8.93"/><ellipse class="cls-123" cx="194.6" cy="283.16" rx="52.28" ry="8.83"/><ellipse class="cls-124" cx="194.6" cy="283.16" rx="51.66" ry="8.72"/><ellipse class="cls-125" cx="194.6" cy="283.16" rx="51.05" ry="8.62"/><ellipse class="cls-126" cx="194.6" cy="283.16" rx="50.43" ry="8.52"/><ellipse class="cls-127" cx="194.6" cy="283.16" rx="49.82" ry="8.41"/><ellipse class="cls-128" cx="194.6" cy="283.16" rx="49.2" ry="8.31"/><ellipse class="cls-129" cx="194.6" cy="283.16" rx="48.59" ry="8.2"/><ellipse class="cls-130" cx="194.6" cy="283.16" rx="47.97" ry="8.1"/><ellipse class="cls-131" cx="194.6" cy="283.16" rx="47.36" ry="8"/><ellipse class="cls-132" cx="194.6" cy="283.16" rx="46.74" ry="7.89"/><ellipse class="cls-133" cx="194.6" cy="283.16" rx="46.13" ry="7.79"/><ellipse class="cls-134" cx="194.6" cy="283.16" rx="45.51" ry="7.69"/><ellipse class="cls-135" cx="194.6" cy="283.16" rx="44.9" ry="7.58"/><ellipse class="cls-136" cx="194.6" cy="283.16" rx="44.28" ry="7.48"/><ellipse class="cls-137" cx="194.6" cy="283.16" rx="43.67" ry="7.37"/><ellipse class="cls-138" cx="194.6" cy="283.16" rx="43.05" ry="7.27"/><ellipse class="cls-139" cx="194.6" cy="283.16" rx="42.44" ry="7.17"/><ellipse class="cls-140" cx="194.6" cy="283.16" rx="41.82" ry="7.06"/><ellipse class="cls-141" cx="194.6" cy="283.16" rx="41.21" ry="6.96"/><ellipse class="cls-142" cx="194.6" cy="283.16" rx="40.59" ry="6.85"/><ellipse class="cls-143" cx="194.6" cy="283.16" rx="39.98" ry="6.75"/><ellipse class="cls-144" cx="194.6" cy="283.16" rx="39.36" ry="6.65"/><ellipse class="cls-145" cx="194.6" cy="283.16" rx="38.75" ry="6.54"/><ellipse class="cls-146" cx="194.6" cy="283.16" rx="38.13" ry="6.44"/><ellipse class="cls-147" cx="194.6" cy="283.16" rx="37.52" ry="6.34"/><ellipse class="cls-148" cx="194.6" cy="283.16" rx="36.9" ry="6.23"/><ellipse class="cls-149" cx="194.6" cy="283.16" rx="36.29" ry="6.13"/><ellipse class="cls-150" cx="194.6" cy="283.16" rx="35.67" ry="6.02"/><ellipse class="cls-151" cx="194.6" cy="283.16" rx="35.06" ry="5.92"/><ellipse class="cls-152" cx="194.6" cy="283.16" rx="34.44" ry="5.82"/><ellipse class="cls-153" cx="194.6" cy="283.16" rx="33.83" ry="5.71"/><ellipse class="cls-154" cx="194.6" cy="283.16" rx="33.21" ry="5.61"/><ellipse class="cls-155" cx="194.6" cy="283.16" rx="32.6" ry="5.5"/><ellipse class="cls-156" cx="194.6" cy="283.16" rx="31.98" ry="5.4"/><ellipse class="cls-157" cx="194.6" cy="283.16" rx="31.37" ry="5.3"/><ellipse class="cls-158" cx="194.6" cy="283.16" rx="30.75" ry="5.19"/><ellipse class="cls-159" cx="194.6" cy="283.16" rx="30.14" ry="5.09"/><ellipse class="cls-160" cx="194.6" cy="283.16" rx="29.52" ry="4.99"/><ellipse class="cls-161" cx="194.6" cy="283.16" rx="28.91" ry="4.88"/><ellipse class="cls-162" cx="194.6" cy="283.16" rx="28.29" ry="4.78"/><ellipse class="cls-163" cx="194.6" cy="283.16" rx="27.68" ry="4.67"/><ellipse class="cls-164" cx="194.6" cy="283.16" rx="27.06" ry="4.57"/><ellipse class="cls-165" cx="194.6" cy="283.16" rx="26.45" ry="4.47"/><ellipse class="cls-166" cx="194.6" cy="283.16" rx="25.83" ry="4.36"/><ellipse class="cls-167" cx="194.6" cy="283.16" rx="25.22" ry="4.26"/><ellipse class="cls-168" cx="194.6" cy="283.16" rx="24.6" ry="4.15"/><ellipse class="cls-169" cx="194.6" cy="283.16" rx="23.99" ry="4.05"/><ellipse class="cls-170" cx="194.6" cy="283.16" rx="23.37" ry="3.95"/><ellipse class="cls-171" cx="194.6" cy="283.16" rx="22.76" ry="3.84"/><ellipse class="cls-172" cx="194.6" cy="283.16" rx="22.14" ry="3.74"/><ellipse class="cls-173" cx="194.6" cy="283.16" rx="21.53" ry="3.63"/><ellipse class="cls-174" cx="194.6" cy="283.16" rx="20.91" ry="3.53"/><ellipse class="cls-175" cx="194.6" cy="283.16" rx="20.3" ry="3.43"/><ellipse class="cls-176" cx="194.6" cy="283.16" rx="19.68" ry="3.32"/><ellipse class="cls-177" cx="194.6" cy="283.16" rx="19.07" ry="3.22"/><ellipse class="cls-178" cx="194.6" cy="283.16" rx="18.45" ry="3.12"/><ellipse class="cls-179" cx="194.6" cy="283.16" rx="17.84" ry="3.01"/><ellipse class="cls-180" cx="194.6" cy="283.16" rx="17.22" ry="2.91"/><ellipse class="cls-181" cx="194.6" cy="283.16" rx="16.61" ry="2.8"/><ellipse class="cls-182" cx="194.6" cy="283.16" rx="15.99" ry="2.7"/><ellipse class="cls-183" cx="194.6" cy="283.16" rx="15.38" ry="2.6"/><ellipse class="cls-184" cx="194.6" cy="283.16" rx="14.76" ry="2.49"/><ellipse class="cls-185" cx="194.6" cy="283.16" rx="14.15" ry="2.39"/><ellipse class="cls-186" cx="194.6" cy="283.16" rx="13.53" ry="2.28"/><ellipse class="cls-187" cx="194.6" cy="283.16" rx="12.92" ry="2.18"/><ellipse class="cls-188" cx="194.6" cy="283.16" rx="12.3" ry="2.08"/><ellipse class="cls-189" cx="194.6" cy="283.16" rx="11.69" ry="1.97"/><ellipse class="cls-190" cx="194.6" cy="283.16" rx="11.07" ry="1.87"/><ellipse class="cls-191" cx="194.6" cy="283.16" rx="10.46" ry="1.77"/><ellipse class="cls-192" cx="194.6" cy="283.16" rx="9.84" ry="1.66"/><ellipse class="cls-193" cx="194.6" cy="283.16" rx="9.23" ry="1.56"/><ellipse class="cls-194" cx="194.6" cy="283.16" rx="8.61" ry="1.45"/><ellipse class="cls-195" cx="194.6" cy="283.16" rx="8" ry="1.35"/><ellipse class="cls-196" cx="194.6" cy="283.16" rx="7.38" ry="1.25"/><ellipse class="cls-197" cx="194.6" cy="283.16" rx="6.77" ry="1.14"/><ellipse class="cls-198" cx="194.6" cy="283.16" rx="6.15" ry="1.04"/><ellipse class="cls-199" cx="194.6" cy="283.16" rx="5.54" ry=".93"/><ellipse class="cls-200" cx="194.6" cy="283.16" rx="4.92" ry=".83"/><ellipse class="cls-201" cx="194.6" cy="283.16" rx="4.31" ry=".73"/><ellipse class="cls-202" cx="194.6" cy="283.16" rx="3.69" ry=".62"/><ellipse class="cls-203" cx="194.6" cy="283.16" rx="3.08" ry=".52"/><ellipse class="cls-204" cx="194.6" cy="283.16" rx="2.46" ry=".42"/><ellipse class="cls-205" cx="194.6" cy="283.16" rx="1.85" ry=".31"/><ellipse class="cls-206" cx="194.6" cy="283.16" rx="1.23" ry=".21"/><ellipse class="cls-207" cx="194.6" cy="283.16" rx=".62" ry=".1"/></g><path class="cls-208" d="M2540 272.73a3 3 0 0 1-2.94-2.41c-11.42-56.77-71-77-96.15-83.11a3 3 0 1 1 1.41-5.83c33.87 8.2 60.12 22.7 78 43.11C2535 241.14 2540.7 258 2543 269.13a3 3 0 0 1-3 3.6z" transform="translate(-2313.31 -114.68)"/><path class="cls-209" d="M2466 167.24c-16.7-8.74-31.54-8.79-49.15-8.56a142.25 142.25 0 0 0-26.26 3.13c8.77 6.35 15.42 7.15 21.67 15.23 9.37 12.11 14.91 29.23 29.37 36.79a109.39 109.39 0 0 0 75.34 9.74 109.39 109.39 0 0 0-50.97-56.33z" transform="translate(-2313.31 -114.68)"/><path class="cls-210" d="M2543.44 272.63a3 3 0 0 1-2.94-3.6c4.05-20 22-68.62 100.6-87.66a3 3 0 1 1 1.41 5.83c-25.08 6.07-84.65 26.31-96.13 83a3 3 0 0 1-2.94 2.43z" transform="translate(-2313.31 -114.68)"/><path class="cls-209" d="M2617.38 167.24c24.11-12.61 53.35-13.09 78-7.47-7.48 3.4-13.1 5.56-17.68 12.24-9.81 14.29-19.47 33.23-35.89 41.82a109.39 109.39 0 0 1-75.34 9.74 109.39 109.39 0 0 1 50.91-56.33z" transform="translate(-2313.31 -114.68)"/><path class="cls-211" transform="rotate(46.9 1429.591 -2462.273)" d="M2427.36 208.72h53.49v105.69h-53.49z"/><rect class="cls-212" x="2433.28" y="216.02" width="41.66" height="91.09" rx="6.88" ry="6.88" transform="rotate(46.9 1429.591 -2462.273)"/><circle class="cls-211" cx="2452.59" cy="263.24" r="11.37" transform="rotate(-43.1 1150.805 3134.718)"/><path class="cls-213" d="M2543.84 189.38c-8.18 1.25-17.08-5-18.38-13.57s5.36-16.49 13.54-17.74 14.41 5.21 15.72 13.76-2.72 16.3-10.88 17.55z" transform="translate(-2313.31 -114.68)"/><ellipse class="cls-214" cx="2542.09" cy="173.66" rx="14.08" ry="14.53" transform="rotate(-8.67 628.97 15374.67)"/><path class="cls-215" d="M2526.86 176a15.41 15.41 0 1 1 17.61 13.35 15.65 15.65 0 0 1-17.61-13.35zm27.84-4.24a12.77 12.77 0 1 0-10.62 15 13 13 0 0 0 10.62-15.03z" transform="translate(-2313.31 -114.68)"/><path class="cls-213" d="M2544.45 186.66s8.74-3.06 7.53-14.11a13.15 13.15 0 0 0-11.39-12 17.4 17.4 0 0 1 2.16-.07c5.61.39 11 5.15 12 11.45A12.89 12.89 0 0 1 2547 186c-.79.25-2.55.66-2.55.66zM2606 274.9c-.45-8.27 6.65-16.51 15.28-17s15.89 6.92 16.35 15.19-6.58 13.84-15.21 14.32-16.01-4.25-16.42-12.51z" transform="translate(-2313.31 -114.68)"/><ellipse class="cls-214" cx="2621.77" cy="274.67" rx="14.53" ry="14.08" transform="rotate(-3.14 -630.071 42417.626)"/><path class="cls-215" d="M2620.93 259.29a15.41 15.41 0 1 1-15 16.25 15.65 15.65 0 0 1 15-16.25zm1.54 28.12a12.77 12.77 0 1 0-13.89-12 13 13 0 0 0 13.89 12z" transform="translate(-2313.31 -114.68)"/><path class="cls-213" d="M2608.6 275.77s2.2 9 13.32 8.86a13.15 13.15 0 0 0 13.08-10.18 17.4 17.4 0 0 1-.13 2.16c-.93 5.54-6.19 10.46-12.55 10.81a12.89 12.89 0 0 1-13.25-9.08c-.23-.78-.47-2.57-.47-2.57zM2498.1 135.43c-2.41-7.92 2.53-17.62 10.8-20.14s17.09 2.94 19.49 10.86-3.09 15-11.36 17.53-16.52-.33-18.93-8.25z" transform="translate(-2313.31 -114.68)"/><ellipse class="cls-214" cx="2513.41" cy="131.45" rx="14.53" ry="14.08" transform="rotate(-16.91 971.687 7855.191)"/><path class="cls-215" d="M2508.93 116.71a15.41 15.41 0 1 1-10.68 19.35 15.65 15.65 0 0 1 10.68-19.35zm8.19 26.94a12.77 12.77 0 1 0-16.35-8.37 13 13 0 0 0 16.35 8.37z" transform="translate(-2313.31 -114.68)"/><path class="cls-213" d="M2500.88 135.64s4.28 8.21 15 5.43a13.15 13.15 0 0 0 10.28-13 17.4 17.4 0 0 1 .38 2.13c.42 5.6-3.52 11.63-9.62 13.49a12.89 12.89 0 0 1-15-5.66c-.38-.7-1.04-2.39-1.04-2.39z" transform="translate(-2313.31 -114.68)"/><path class="cls-209" d="M2540 306.32c11.94.06 17.92.07 21.36 3.63s3.26 8.05 3.12 12.87c0 .95-.05 2-.06 3-.07 14.08 13.16 22.85 13.09 37.45a37.8 37.8 0 0 1-75.6-.38c.07-14.39 13.37-23.07 13.47-37.3v-3c-.09-4.82-.18-9.37 3.24-12.84s9.48-3.49 21.38-3.43z" transform="translate(-2313.31 -114.68)"/><path class="cls-216" d="M2517.3 298.37c0-1.87 1.89-3.37 4.19-3.35l38.27.19c2.31 0 4.17 1.53 4.16 3.4 0 1.87-1.89 3.37-4.19 3.35l-38.28-.19c-2.3 0-4.16-1.53-4.16-3.4zM2517.34 289.21c0-1.87 1.89-3.37 4.19-3.36l38.28.19c2.31 0 4.17 1.53 4.16 3.4 0 1.87-1.89 3.37-4.2 3.36l-38.28-.19c-2.3 0-4.17-1.53-4.16-3.39zM2517.39 280c0-1.86 1.89-3.37 4.19-3.36l38.28.19c2.31 0 4.17 1.53 4.16 3.4 0 1.86-1.89 3.36-4.2 3.35l-38.27-.19c-2.31 0-4.17-1.54-4.16-3.4zM2527.52 270.93c0-1.56 1.57-2.81 3.49-2.8l19.48.1c1.93 0 3.48 1.27 3.47 2.83 0 1.55-1.57 2.8-3.49 2.79l-19.48-.1c-1.92 0-3.47-1.28-3.46-2.83z" transform="translate(-2313.31 -114.68)"/><path class="cls-211" transform="rotate(-32.76 1266.59 4060.731)" d="M2591.61 130.17h53.49v105.69h-53.49z"/><rect class="cls-212" x="2597.53" y="137.46" width="41.66" height="91.09" rx="6.88" ry="6.88" transform="rotate(-32.76 1266.59 4060.731)"/><circle class="cls-211" cx="2619.74" cy="184.81" r="11.37" transform="rotate(-32.76 1267.967 4062.522)"/><path class="cls-213" d="M2501.45 368.55c-8.18 1.25-17.08-5-18.38-13.57s5.36-16.49 13.54-17.74 14.41 5.21 15.72 13.76-2.7 16.3-10.88 17.55z" transform="translate(-2313.31 -114.68)"/><ellipse class="cls-214" cx="2499.7" cy="352.83" rx="14.08" ry="14.53" transform="rotate(-8.67 586.532 15553.816)"/><path class="cls-215" d="M2484.47 355.15a15.41 15.41 0 1 1 17.61 13.35 15.65 15.65 0 0 1-17.61-13.35zm27.84-4.24a12.77 12.77 0 1 0-10.62 15 13 13 0 0 0 10.62-15z" transform="translate(-2313.31 -114.68)"/><path class="cls-213" d="M2502.05 365.83s8.74-3.06 7.53-14.11a13.15 13.15 0 0 0-11.39-12 17.4 17.4 0 0 1 2.16-.07c5.61.39 11 5.15 12 11.45a12.89 12.89 0 0 1-7.76 14.07c-.77.25-2.54.66-2.54.66z" transform="translate(-2313.31 -114.68)"/></svg>