<svg id="Laag_1" data-name="Laag 1" xmlns="http://www.w3.org/2000/svg" viewBox="0 0 696.61 799.79"><defs><style>.cls-1{fill:#d04619}.cls-2{fill:#f18d4a}.cls-3{fill:#eb661c}.cls-4{fill:#1e80a8}.cls-5{fill:#f55e38}.cls-6{fill:#38a8e0}.cls-7{fill:none}.cls-15,.cls-8{fill:#146e88}.cls-8{fill-rule:evenodd}.cls-9{fill:#84ceea}.cls-10{fill:#fff}.cls-11{fill:#d7b29d}.cls-12{fill:#fad1b5}.cls-13{fill:#e85720}.cls-14{fill:#e95822}.cls-16{fill:#f60}.cls-17{fill:#55bcea}.cls-18{fill:#3ba6de}</style></defs><title>introduction</title><path class="cls-1" transform="rotate(-104.53 604.042 331.14)" d="M623.2 278.94H689v130.01h-65.8z"/><rect class="cls-2" x="630.47" y="287.92" width="51.24" height="112.05" rx="6.88" ry="6.88" transform="rotate(-104.5 604.287 330.225)"/><circle class="cls-3" cx="658.72" cy="343.02" r="13.98" transform="rotate(-14 377.484 516.298)"/><path class="cls-1" transform="rotate(-121.03 593.965 334.633)" d="M606.2 287.94H672v130.01h-65.8z"/><rect class="cls-2" x="613.47" y="296.92" width="51.24" height="112.05" rx="6.88" ry="6.88" transform="matrix(-.52 -.86 .86 -.52 613.4 1016.1)"/><circle class="cls-3" cx="641.35" cy="351.32" r="13.98" transform="rotate(-31.03 495.45 413.144)"/><path class="cls-4" d="M212.8 107.87L262.35 0l20.9 11.39-67 95-3.45 1.48z"/><path class="cls-1" d="M319.4 448.81l-1-.79a11.44 11.44 0 0 0-1-.91l-64.61-53.16 1 9.69c.34 3.42 2.22 30.63-.76 31.92-.39.17 2.21.76 1.78.72-7.16-.74-13.86-3.94-20.58-6.32-6.33-2.25-17-8.11-25.81-12.07l79.33 65.28a12.09 12.09 0 0 0 1.65 1.13c.16.14.31.28.48.41 10.27 8.45 25.21 7.27 33.36-2.64s6.42-24.81-3.84-33.26z" transform="translate(-52.75 -66.42)"/><path class="cls-5" d="M255.49 437c2.46-4.08.67-12.42.36-15.94-.52-5.84-1.5-11.63-2.09-17.46l-1-9.69-7.61-6.26-9.5 11.55-1.6-1.32 9.5-11.55-14.82-12.2-9.5 11.54-1.6-1.32 9.5-11.54-14.82-12.2-9.5 11.55-1.6-1.33 9.5-11.54-17.11-14.04c2.4-4.46 2.5-9-.07-11.15-3.21-2.64-9.35-.47-13.72 4.84l-24.72 30c-4.37 5.3-5.32 11.75-2.11 14.39 2.58 2.12 7 1.14 11-2.08l44.46 36.58c6.1 6.43 17.76 13.17 24.09 15.43 4.17 1.48 8 3.89 12.18 5.25a18.5 18.5 0 0 0 7.11.78 4.61 4.61 0 0 0 3.67-2.29z" transform="translate(-52.75 -66.42)"/><path class="cls-4" d="M162.64 454.75h444.04v45H162.64z"/><path class="cls-6" d="M578.21 427.87h64.48v371.92h-64.48z"/><path class="cls-7" d="M217.58 443.72l7.34 90.67"/><path class="cls-8" d="M268.02 499.58h-44.66l-4.41-44.73 45.24.08 3.83 44.65z"/><path class="cls-4" d="M138 360.09a7 7 0 1 1-1-9.92 7.05 7.05 0 0 1 1 9.92zm-8.48-7a3.93 3.93 0 1 0 5.53-.54 3.92 3.92 0 0 0-5.57.57zM133.58 320.42a6.32 6.32 0 1 1-.86-8.9 6.31 6.31 0 0 1 .86 8.9zm-7.35-6.05a3.2 3.2 0 1 0 4.51-.45 3.21 3.21 0 0 0-4.51.45z" transform="translate(-52.75 -66.42)"/><path class="cls-9" d="M78.13 326.44a6.82 6.82 0 1 1-.93-9.6 6.82 6.82 0 0 1 .93 9.6zm-7.94-6.53a3.46 3.46 0 1 0 4.87-.48 3.46 3.46 0 0 0-4.87.48zM163.58 340.89a10.52 10.52 0 1 1-1.43-14.81 10.53 10.53 0 0 1 1.43 14.81zm-13-10.73a6.37 6.37 0 1 0 9-.87 6.37 6.37 0 0 0-9.04.87z" transform="translate(-52.75 -66.42)"/><path class="cls-4" d="M140.52 279.7a12.44 12.44 0 1 1-1.69-17.53 12.45 12.45 0 0 1 1.69 17.53zm-16.14-13.33a8.49 8.49 0 0 0 13.09 10.82l1.52 1.26-1.52-1.27a8.49 8.49 0 0 0-13.08-10.81zM98 297.43a12 12 0 1 1-1.65-16.92A12 12 0 0 1 98 297.43zm-16.17-13.3a8.91 8.91 0 1 0 12.54-1.22 8.91 8.91 0 0 0-12.49 1.22z" transform="translate(-52.75 -66.42)"/><path class="cls-5" d="M203.14 287.91a1 1 0 0 1-.72.36l-27.29 1a1 1 0 1 1-.08-2l27.29-1a1 1 0 0 1 .8 1.64z" transform="translate(-52.75 -66.42)"/><path class="cls-5" d="M199.52 297.7a1 1 0 0 1-1.4.05l-20-18.56a1 1 0 1 1 1.34-1.45l20 18.56a1 1 0 0 1 .06 1.4z" transform="translate(-52.75 -66.42)"/><path class="cls-5" d="M190.08 302.06a1 1 0 0 1-1.75-.59l-1.1-27.29a1 1 0 1 1 2-.08l1.1 27.29a1 1 0 0 1-.25.67z" transform="translate(-52.75 -66.42)"/><path class="cls-5" d="M198.79 278.38l-18.55 20.12a1 1 0 0 1-1.39.06 1 1 0 0 1-.06-1.39l18.52-20.08a1 1 0 0 1 1.48 1.29zM83.95 385.94a1 1 0 0 1-.72.36l-29.45 1.12a1 1 0 1 1-.08-2l29.45-1.12a1 1 0 0 1 .8 1.64z" transform="translate(-52.75 -66.42)"/><path class="cls-5" d="M80 396.52a1 1 0 0 1-1.4.05L57 376.59a1 1 0 1 1 1.34-1.45l21.61 20a1 1 0 0 1 .05 1.38z" transform="translate(-52.75 -66.42)"/><path class="cls-5" d="M69.85 401.22a1 1 0 0 1-1.75-.59l-1.19-29.44a1 1 0 1 1 2-.08l1.19 29.44a1 1 0 0 1-.25.67z" transform="translate(-52.75 -66.42)"/><path class="cls-5" d="M79.24 375.67l-20 21.66a1 1 0 0 1-1.39.06 1 1 0 0 1-.06-1.39l20-21.66a1 1 0 0 1 1.45 1.33z" transform="translate(-52.75 -66.42)"/><path class="cls-10" d="M218.17 358.73l-14.63 17.71a2.83 2.83 0 0 1-4.35-3.59l14.63-17.71a2.83 2.83 0 0 1 4.35 3.59zM234.39 372.3L219.76 390a2.83 2.83 0 0 1-4.35-3.59l14.59-17.7a2.83 2.83 0 0 1 4.39 3.59zM249.39 385.3L234.76 403a2.83 2.83 0 0 1-4.35-3.59l14.59-17.7a2.83 2.83 0 0 1 4.39 3.59z" transform="translate(-52.75 -66.42)"/><path class="cls-10" d="M247.29 385.49L234 401.59c-.92 1.11-2.18 1.58-3.29.67s-.89-2.25 0-3.36l13.3-16.1c.92-1.11 2.18-1.58 3.29-.67s.9 2.24-.01 3.36z" transform="translate(-52.75 -66.42)"/><path class="cls-11" d="M341.43 493.34c-.52.05-.84 1.72-1.18 2.75s-.66 1.87-.9 2.86l-57.42 6-.62-2.65-.61-2.61z" transform="translate(-52.75 -66.42)"/><path class="cls-12" d="M255.53 446.47c4.53.5 9-3.88 9.57-9.85l-3-28.42L260 388c-.54-5.17 4.25-9.82 9.42-10.36l1.94-.2a9.81 9.81 0 0 1 9.7 6 9.9 9.9 0 0 1 8.68-6.73l.49-.05a9.86 9.86 0 0 1 7.92 2.34c1.58 1.09 1.89 3 2.11 5l.26 2.54a13 13 0 0 1 9.92-7.2l1-.1a10.14 10.14 0 0 1 11.15 9 20.47 20.47 0 0 0 .57 2.77 10.54 10.54 0 0 1 20.91.17l2.15 20.71.24 2.35 5.41 52.1a6.64 6.64 0 0 1-.13 3 18 18 0 0 1-.9 3.28c-1.36 4.54-6.28 13.28-9.44 20.78l-60.72 6.3-.7-3.38s-17.73-3.45-30.27-17-18.31-22.39-20.57-31.82a126.78 126.78 0 0 1-2.79-14.71z" transform="translate(-52.75 -66.42)"/><path class="cls-8" d="M339.69 454.73l-1.34 45.08 13.05-.25 1.02-45.17-12.73.34zM462.63 454.9l-6.96 44.76 13.85-.25 5.51-44-12.4-.51z"/><path class="cls-13" d="M522.53 287.34a1 1 0 0 1-.89-1.45c1.3-2.58 2.55-4.9 3.84-7.08a1 1 0 1 1 1.72 1c-1.27 2.15-2.5 4.43-3.78 7a1 1 0 0 1-.89.53zm98.93-4.79a28.3 28.3 0 0 1-7.6-1.07 1 1 0 0 1 .54-1.93 26.33 26.33 0 0 0 7.61 1 1 1 0 0 1 0 2h-.59zm8.38-1.52a1 1 0 0 1-.36-1.93 20.44 20.44 0 0 0 6.44-4 1 1 0 1 1 1.35 1.48 22.43 22.43 0 0 1-7.07 4.42 1 1 0 0 1-.36 0zm-23-2.65a1 1 0 0 1-.51-.14 31.63 31.63 0 0 1-6.48-5.09 1 1 0 0 1 1.43-1.4 29.62 29.62 0 0 0 6.07 4.77 1 1 0 0 1-.56 1.85zm-76.09-4.75a1 1 0 0 1-.81-1.59 77.58 77.58 0 0 1 5.07-6.31 1 1 0 0 1 1.49 1.33 75.76 75.76 0 0 0-4.94 6.14 1 1 0 0 1-.86.42zm110.78-3.07a1 1 0 0 1-.87-1.48 20.16 20.16 0 0 0 2.43-7.18 1 1 0 0 1 2 .25 22.16 22.16 0 0 1-2.67 7.89 1 1 0 0 1-.94.51zM595.77 267a1 1 0 0 1-.86-.5l-.06-.12a35.14 35.14 0 0 1-3-7.52 1 1 0 1 1 1.93-.52 33.57 33.57 0 0 0 2.88 7.17 1 1 0 0 1-.89 1.49zm-54.49-5.35a1 1 0 0 1-.69-1.72c1.72-1.64 3.68-3.4 6-5.39a1 1 0 0 1 1.31 1.51c-2.27 2-4.2 3.71-5.9 5.32a1 1 0 0 1-.72.3zm102-6.55a1 1 0 0 1-1-.7 22.81 22.81 0 0 0-3.52-6.76 1 1 0 1 1 1.61-1.19 24.82 24.82 0 0 1 3.83 7.36 1 1 0 0 1-.66 1.25 1 1 0 0 1-.23.06zm-51.55-3.4a1 1 0 0 1-1-1 32.88 32.88 0 0 1 1.1-8.15 1 1 0 0 1 1.94.51 30.8 30.8 0 0 0-1 7.65 1 1 0 0 1-1.01 1.01zm-38.44-.56a1 1 0 0 1-.64-1.77l.47-.39c1.87-1.55 3.88-3.06 6-4.5a1 1 0 0 1 1.13 1.65c-2 1.4-4 2.87-5.83 4.38l-.47.39a1 1 0 0 1-.62.25zm80.81-8.88a1 1 0 0 1-.64-.24 44.13 44.13 0 0 0-6.41-4.47 1 1 0 1 1 1-1.73 46 46 0 0 1 6.7 4.68 1 1 0 0 1-.62 1.77zm-67.62-.14a1 1 0 0 1-.49-1.87c2.34-1.3 4.78-2.51 7.24-3.61a1 1 0 0 1 .81 1.83c-2.4 1.07-4.79 2.25-7.08 3.53a1 1 0 0 1-.45.13zm29.14-5.78a1 1 0 0 1-.9-1.44q.71-1.46 1.57-2.95a1 1 0 0 1 .24-1.92l1-.11q.64-1 1.33-2a1 1 0 1 1 1.65 1.13l-.46.68c1.4-.09 2.79-.14 4.15-.14h.46a1 1 0 0 1 0 2h-.45c-1.79 0-3.63.09-5.49.26-.81 1.34-1.54 2.67-2.18 4a1 1 0 0 1-.9.5zm-14.53-.7a1 1 0 0 1-.32-1.95c2.59-.88 5.21-1.63 7.78-2.24a1 1 0 1 1 .46 1.95c-2.51.59-5.07 1.32-7.6 2.18a1 1 0 0 1-.3.07zm39.23-1.36a1 1 0 0 1-.35-.06 39.31 39.31 0 0 0-6.68-1.87l-.85-.15a1 1 0 0 1 .32-2l.89.15a41.34 41.34 0 0 1 7 2 1 1 0 0 1-.3 1.94zm-15.78-11.17a1 1 0 0 1-.76-1.65c1.63-1.93 3.47-3.93 5.45-6a1 1 0 0 1 1.43 1.4c-2 2-3.75 4-5.36 5.85a1 1 0 0 1-.73.41zm23.24-22a1 1 0 0 1-.65-1.76l2.64-2.24q1.73-1.47 3.48-2.93a1 1 0 0 1 1.28 1.54q-1.74 1.45-3.46 2.91l-2.65 2.24a1 1 0 0 1-.61.28zm12.28-10.25a1 1 0 0 1-.64-1.77c2-1.69 4.1-3.4 6.12-5.13a1 1 0 0 1 1.3 1.52c-2 1.74-4.09 3.45-6.14 5.15a1 1 0 0 1-.6.26z" transform="translate(-52.75 -66.42)"/><path class="cls-5" transform="rotate(-56 286.793 185.89)" d="M310.03 82.63h126.94V257.5H310.03z"/><path class="cls-10" d="M415.77 155.47l-45.33 66.67a2.43 2.43 0 0 1-4-2.73l45.33-66.67a2.43 2.43 0 0 1 4 2.73zM416.34 186.82l-31 45.58c-.48.71-1.81.65-2.88-.08s-1.62-1.94-1.13-2.65l31-45.58c.48-.71 1.81-.65 2.88.08s1.61 1.94 1.13 2.65zM442.85 180.75l-42.14 62a2.43 2.43 0 0 1-4-2.73l42.14-62a2.43 2.43 0 0 1 4 2.73z" transform="translate(-52.75 -66.42)"/><path class="cls-6" d="M126.64 427.87h64.48v371.92h-64.48z"/><path class="cls-15" d="M571.75 454.89h6v44h-6z"/><path class="cls-5" d="M222.91 438.77l11.85 113.81h70.98l-12.62-121.3-70.21 7.49z"/><path class="cls-13" d="M238.93 593.11l70.22-7.49-3.41-33.04h-70.98l4.17 40.53zM340.93 601.16l75.86 1.74 1.28-50.32h-75.91l-1.23 48.58z"/><path class="cls-5" d="M349.77 255l-7.61 297.58h75.91l7.56-295.84-75.86-1.74zM482.83 370.08l-30.34 182.5h76.92l28.28-170.28-74.86-12.22z"/><path class="cls-13" d="M442.76 611.61l74.86 12.22 11.79-71.25h-76.92l-9.73 59.03z"/><path class="cls-6" d="M126.64 559.76h516.05v240.02H126.64z"/><path class="cls-11" d="M540.77 431c.36 1.27.7 2.4 1 3.52s.55 2.3.73 3.38l61.2 10.28.91-3.24.9-3.19z" transform="translate(-52.75 -66.42)"/><path class="cls-1" d="M366 241.31s30.89 24.34 31.5-20c.5-36.51 1.5-62 1.5-62s-3.5-23 10-21l5 58.5 9.5 54.5s-21 23-22.5 22.5-14.5-2.5-16-3.5-19-29-19-29z" transform="translate(-52.75 -66.42)"/><path class="cls-11" d="M474.16 316.93c-.59 1.18-1.14 2.27-1.65 3.32s-1 2.18-1.36 3.2l-62-1.45-.28-3.4-.28-3.35z" transform="translate(-52.75 -66.42)"/><path class="cls-12" d="M491.62 168.6a10.62 10.62 0 0 0-10.18-11 10.62 10.62 0 0 0-10.73 10.44l-1.31 51.28-.18.69c-.08-.67-.25-5.29-.39-9.55l1.33-52a10.71 10.71 0 1 0-21.41-.55l-1.2 58.12a20.52 20.52 0 0 1-1.23 3.33l1.9-71.78a10.71 10.71 0 1 0-21.41-.55l-1.54 68.78a11.7 11.7 0 0 1-.53 1.54c-.15-.51-.33-1.39-.54-2.54v-.55l1-67.46a10.71 10.71 0 1 0-21.41-.55l-1.25 61.3a7.84 7.84 0 0 0 .05 1.18l-.19 7.56-.78 30.7c-1.35 6.29-7.32 10.32-12.08 9.16l-29.42-18.75a101 101 0 0 0 .68 16c1.1 10.37 6 20.46 17.53 36.63s29.92 22 29.92 22l.29 3.15 65.6 1.68c4.4-7 10.74-15.64 12.82-20.3a13.72 13.72 0 0 0 1.29-2.82 7.08 7.08 0 0 0 .33-3.15l1.42-56.2.06-2.53.57-22.37a11.33 11.33 0 0 0-.07-1.45z" transform="translate(-52.75 -66.42)"/><path class="cls-11" d="M307.38 171.05l27.12 17.09 2.31 1.67-29.56-13.17.13-5.59z"/><path class="cls-7" d="M503.92 288.06"/><path class="cls-12" d="M424 213.25s1.38 5.13 1.38 0c0-4.81 5.88.13 5.88.13l.63 4-1.89 4.24s-2.75 1.63-4 1a42 42 0 0 1-4.25-2.25c-.62-.5-1.87-.75-1.75-1.87a3.85 3.85 0 0 1 .75-2.37 25.21 25.21 0 0 1 3.25-2.88z" transform="translate(-52.75 -66.42)"/><path class="cls-5" transform="rotate(-111.43 599.112 331.698)" d="M615.2 281.94H681v130.01h-65.8z"/><rect class="cls-2" x="622.47" y="290.92" width="51.24" height="112.05" rx="6.88" ry="6.88" transform="rotate(-111.43 599.112 331.698)"/><circle class="cls-5" cx="649.59" cy="346.72" r="13.98" transform="rotate(-21.43 447.868 452.955)"/><path class="cls-12" d="M635.51 387.34c-4.89.24-9.81-4.82-10-11.25l5-30.3 3.58-21.6c.92-5.52-3.22-10.86-8.74-11.78l-2.07-.34a10.51 10.51 0 0 0-10.8 5.78 10.67 10.67 0 0 0-8.86-7.83l-.53-.09c-3.47-.58-7.37.31-9.27 2a7.4 7.4 0 0 0-3.21 5.25l-.45 2.7c-1.7-4.28-4.42-8-8.88-8.77l-1.05-.17a11.16 11.16 0 0 0-12.6 9.22 23.86 23.86 0 0 1-.82 3.09 10.87 10.87 0 0 0-9.07-10.22 11 11 0 0 0-12.61 9.31l-3.66 22.08-.42 2.5-9.22 55.54c-.18 1.08-.75 2.07-.45 3.12a14 14 0 0 0 .64 3c1.16 5 5.86 13.48 8.66 22.38l64.73 10.74.89-3.08s19.2-2.29 33.55-16S661 400 664.07 390a111 111 0 0 0 3.78-15.57z" transform="translate(-52.75 -66.42)"/><ellipse class="cls-10" cx="681.6" cy="154.99" rx="9.52" ry="10.69" transform="rotate(-40.83 566 192.645)"/><path class="cls-5" d="M723.69 139.7l-22.49-26c-1.81 1.18-15 8.39-27.23 19.83-14.89 13.94-29.18 32.53-29.18 32.53l18 20.79s19.55-9.53 36.37-23.4a241 241 0 0 0 24.53-23.75z" transform="translate(-52.75 -66.42)"/><circle class="cls-10" cx="698.59" cy="138.19" r="10.69" transform="rotate(-40.87 583.144 175.768)"/><path class="cls-4" d="M749 95.61c-2.61-3.07-26 3.63-44.75 16.72l21.54 25.39C741.43 121 751.56 98.69 749 95.61z" transform="translate(-52.75 -66.42)"/><path class="cls-6" d="M668.1 136.48c-13.58-15.69-46.72 42.89-46.72 42.89l22.37-14.62s7.73-10.33 12.92-16.2c4.58-5.19 11.43-12.07 11.43-12.07zM695.91 168.63c13.58 15.69-49.78 41.37-49.78 41.37l18.32-21.29s11.33-6.17 17.88-10.46c5.79-3.83 13.58-9.62 13.58-9.62z" transform="translate(-52.75 -66.42)"/><path class="cls-5" d="M654.77 184.72s-8.82-10-8.79-10.26c0 0-18.27.95-24.6 21.05a42.3 42.3 0 0 0 6.14-2.07 30.88 30.88 0 0 0-8.16 13.46 38.85 38.85 0 0 0 12.94-5.86 35.93 35.93 0 0 0-1.67 4.32c19.99-5.1 24.1-20.21 24.14-20.64z" transform="translate(-52.75 -66.42)"/><path class="cls-10" d="M653.68 181.73s-5-5.58-4.93-5.75a23.62 23.62 0 0 0-17 14.52 33.34 33.34 0 0 0 4-1.67 24.82 24.82 0 0 0-6 8.8 31.59 31.59 0 0 0 8.59-4.42A27 27 0 0 0 637 196c13.05-4.45 16.62-14 16.68-14.27zM331.91 114.24L301.77 160l56.27 37 2-3.09a11.54 11.54 0 0 1-1.82-14.33l13.53-20.56a11.5 11.5 0 0 1 13.88-4l2.52-3.84z" transform="translate(-52.75 -66.42)"/><path class="cls-4" d="M371.78 159.1l-13.53 20.56a11.54 11.54 0 0 0 1.81 14.34l25.59-38.88a11.5 11.5 0 0 0-13.87 3.98z" transform="translate(-52.75 -66.42)"/><path class="cls-17" d="M333.94 166.45c6.45 4.68 22 8 27 1.72l-30.46-21.77a14.65 14.65 0 0 0 3.46 20.05z" transform="translate(-52.75 -66.42)"/><path class="cls-18" d="M330.78 146l-.3.43 30.43 21.77.16-.21c3.41-4.7.25-13.21-4.21-19.4a26.81 26.81 0 0 0-5.62-5.92 14.65 14.65 0 0 0-20.46 3.33z" transform="translate(-52.75 -66.42)"/><path class="cls-4" d="M337.45 168.46s-7.21-5.56-6.93-10.82c.07-1.3 1.35-2.82 2.09-3.84.91-1.26 2.83-3.85 3.75-5.11 1.8-2.48 2.67-3.57 4.47-6.05s4.68-1.6 7.15-.72c2.23.8 4.3 2.43 6.39 3.55 0 0-19.69-23.26-28.33-12.38 1.81 0 6.91.79 2.84 9.69s-6.88 18.73 8.57 25.68z" transform="translate(-52.75 -66.42)"/><path class="cls-10" d="M353.84 163.12a10.25 10.25 0 0 1-5.47 4 6.81 6.81 0 0 0 7.46-10.42 10.25 10.25 0 0 1-1.99 6.42z" transform="translate(-52.75 -66.42)"/><path class="cls-4" d="M350.09 159.95a3.15 3.15 0 0 1-2.18 1.28 2.32 2.32 0 0 0 2.69-3.76 3.15 3.15 0 0 1-.51 2.48z" transform="translate(-52.75 -66.42)"/><path class="cls-10" d="M316.57 711.1a11.53 11.53 0 0 0 2.17 5.83q3 3.51 10.13 3.51a21.79 21.79 0 0 0 7-.93q5.08-1.78 5.08-6.6a4.86 4.86 0 0 0-2.49-4.36 27 27 0 0 0-7.9-2.66l-6.16-1.35q-9.08-2-12.47-4.36-5.75-3.93-5.75-12.31a16.35 16.35 0 0 1 5.62-12.69q5.63-5.05 16.52-5.05a25.34 25.34 0 0 1 15.53 4.77q6.42 4.77 6.74 13.83h-11.45a8.14 8.14 0 0 0-4.59-7.29 15.73 15.73 0 0 0-7.08-1.43 13.47 13.47 0 0 0-7.52 1.85 5.86 5.86 0 0 0-2.81 5.17 4.88 4.88 0 0 0 2.77 4.55 34.35 34.35 0 0 0 7.56 2.35l10 2.35q6.56 1.54 9.84 4.13 5.09 4 5.09 11.61a16.32 16.32 0 0 1-6 12.95q-6 5.15-17 5.15-11.23 0-17.67-5.07t-6.43-13.95h11.34zM354.74 694.82V687h5.87v-11.74h10.88V687h6.83v7.83h-6.83V717q0 2.59.66 3.22t4 .64h1.06l1.1-.06v8.2l-5.21.19q-7.79.27-10.65-2.7-1.85-1.89-1.85-5.83v-25.84h-5.87zM401.59 703.08a17.39 17.39 0 0 0 4.39-1 3.31 3.31 0 0 0 2.37-3.12 3.7 3.7 0 0 0-1.82-3.57 11.49 11.49 0 0 0-5.34-1q-3.95 0-5.59 1.93a8 8 0 0 0-1.56 3.86h-10.61a16.09 16.09 0 0 1 3.1-9.07q4.38-5.56 15-5.56a26.81 26.81 0 0 1 12.32 2.74q5.39 2.74 5.39 10.34V718q0 2 .08 4.86a6.11 6.11 0 0 0 .66 2.93 3.94 3.94 0 0 0 1.62 1.27v1.62h-12a12.21 12.21 0 0 1-.69-2.39q-.19-1.12-.31-2.55a22.69 22.69 0 0 1-5.28 4.21 16 16 0 0 1-8.07 2 13.93 13.93 0 0 1-9.49-3.26q-3.75-3.26-3.75-9.24 0-7.76 6-11.23 3.3-1.89 9.72-2.7zm6.72 5.13a12.14 12.14 0 0 1-2.13 1.06 18 18 0 0 1-3 .75l-2.5.46a16.47 16.47 0 0 0-5.05 1.5 5 5 0 0 0-2.6 4.67 4.88 4.88 0 0 0 1.59 4.07 6 6 0 0 0 3.86 1.25 11.5 11.5 0 0 0 6.64-2.08q3-2.08 3.15-7.6v-4.09zM451.19 685.62l.95.06v11.27q-1-.12-1.85-.16h-1.31q-6.64 0-8.91 4.32-1.27 2.43-1.27 7.49v20.1h-11.09v-42.1h10.5v7.33a23.27 23.27 0 0 1 4.44-5.75 12.08 12.08 0 0 1 8-2.58zM455.86 694.82V687h5.86v-11.74h10.88V687h6.83v7.83h-6.83V717q0 2.59.66 3.22t4 .64h1.06l1.1-.06v8.2l-5.21.19q-7.79.27-10.65-2.7-1.85-1.89-1.85-5.83v-25.84h-5.86zM495.68 686.6V712a13.34 13.34 0 0 0 .84 5.4q1.5 3.2 5.87 3.2 5.61 0 7.68-4.55a16.57 16.57 0 0 0 1.07-6.52V686.6h11.15v42.06h-10.67v-5.94q-.15.19-.77 1.16a7.75 7.75 0 0 1-1.46 1.7 15.25 15.25 0 0 1-5 3.16 17 17 0 0 1-5.64.85q-9.31 0-12.54-6.71-1.81-3.7-1.81-10.92V686.6h11.27zM566.52 691.11q5.15 5.44 5.15 16 0 11.11-5 16.94a16.33 16.33 0 0 1-13 5.83 13.58 13.58 0 0 1-8.39-2.51 16.23 16.23 0 0 1-3.57-4.05v21.92h-10.87V686.6h10.53v6.21a17.69 17.69 0 0 1 3.8-4.32 14 14 0 0 1 8.78-2.82 16.63 16.63 0 0 1 12.57 5.44zm-8.44 7.89q-2.24-3.74-7.27-3.74a8.27 8.27 0 0 0-8.3 5.67 21.29 21.29 0 0 0-1.17 7.64q0 7.33 3.93 10.3a9 9 0 0 0 5.54 1.74 8 8 0 0 0 7.08-3.55q2.44-3.55 2.44-9.45a16.42 16.42 0 0 0-2.25-8.61zM414.44 766.84a14.47 14.47 0 0 1 2.61 8.68 12.66 12.66 0 0 1-2.63 8.37 13.57 13.57 0 0 1-4.34 3.24 12.67 12.67 0 0 1 6.57 5 15 15 0 0 1 2.22 8.33 16.64 16.64 0 0 1-2.53 9.07 15.66 15.66 0 0 1-10.45 7.33 39.38 39.38 0 0 1-8 .77h-25.68v-56.85h27.49q10.4.16 14.74 6.06zm-30.88 3.82v12.54h13.82a11.43 11.43 0 0 0 6-1.41q2.31-1.41 2.31-5 0-4-3.06-5.25a21.41 21.41 0 0 0-6.72-.89h-12.35zm0 22v15.16h13.81a13.42 13.42 0 0 0 5.76-1q3.74-1.85 3.74-7.1 0-4.44-3.62-6.1a14.39 14.39 0 0 0-5.68-1h-14zM461.69 812.51q-5.32 6.57-16.17 6.57t-16.17-6.57a26.09 26.09 0 0 1 0-31.59q5.32-6.67 16.17-6.67t16.17 6.67a26.09 26.09 0 0 1 0 31.59zm-8.8-6.08q2.59-3.43 2.59-9.75T452.9 787a9.77 9.77 0 0 0-14.84 0q-2.6 3.41-2.6 9.73t2.6 9.75a9.74 9.74 0 0 0 14.84-.04z" transform="translate(-52.75 -66.42)"/><path class="cls-10" d="M467.27 817.66l14.35-21.3-13.74-20.68h13.47l7 12.18 6.86-12.18h13.08l-13.81 20.49 14.35 21.49h-13.7l-7.2-12.66-7.31 12.64h-13.35z" transform="translate(-52.75 -66.42)"/></svg>